<?xml version="1.0" encoding="UTF-8" standalone="no"?>
<svg
  xmlns:dc="http://purl.org/dc/elements/1.1/"
  xmlns:cc="http://creativecommons.org/ns#"
  xmlns:rdf="http://www.w3.org/1999/02/22-rdf-syntax-ns#"
  xmlns="http://www.w3.org/2000/svg"
  xmlns:sodipodi="http://sodipodi.sourceforge.net/DTD/sodipodi-0.dtd"
  xmlns:inkscape="http://www.inkscape.org/namespaces/inkscape"
  inkscape:version="1.0 (4035a4fb49, 2020-05-01)"
  sodipodi:docname="header_logo.svg"
  viewBox="0 0 460.3305 173.2686"
  id="svg19"
  height="173.2686"
  width="460.33051"
  version="1.1">
  <metadata
    id="metadata25">
    <rdf:RDF>
      <cc:Work
        rdf:about="">
        <dc:format>image/svg+xml</dc:format>
        <dc:type
          rdf:resource="http://purl.org/dc/dcmitype/StillImage"/>
        <dc:title></dc:title>
      </cc:Work>
    </rdf:RDF>
  </metadata>
  <defs
    id="defs23"/>
  <sodipodi:namedview
    inkscape:current-layer="svg19"
    inkscape:window-maximized="1"
    inkscape:window-y="614"
    inkscape:window-x="0"
    inkscape:cy="298.13479"
    inkscape:cx="230.16509"
    inkscape:zoom="0.84927983"
    showgrid="false"
    id="namedview21"
    inkscape:window-height="1021"
    inkscape:window-width="1680"
    inkscape:pageshadow="2"
    inkscape:pageopacity="0"
    guidetolerance="10"
    gridtolerance="10"
    objecttolerance="10"
    borderopacity="1"
    bordercolor="#666666"
    pagecolor="#ffffff"/>
  <g
    transform="translate(-67.4727,-122.8101)"
    id="Layer1000">
    <path
      id="path2"
      style="fill:#ffffff;fill-rule:evenodd"
      d="m 154.1068,122.8101 c 23.9231,0 45.5837,9.6975 61.2591,25.375 15.6765,15.6764 25.375,37.337 25.375,61.2601 0,3.7252 -0.2356,7.3963 -0.6919,10.9983 h -3.4644 c 0.4749,-3.5994 0.7214,-7.27 0.7214,-10.9983 0,-22.9749 -9.3129,-43.776 -24.3691,-58.8311 -15.0547,-15.0562 -35.8552,-24.3696 -58.8301,-24.3696 -22.9738,0 -43.7744,9.3134 -58.8311,24.3696 -15.0551,15.0551 -24.369,35.8562 -24.369,58.8311 0,3.7283 0.2464,7.3989 0.7213,10.9983 h -3.4633 c -0.4563,-3.602 -0.692,-7.2731 -0.692,-10.9983 0,-23.9231 9.6976,-45.5837 25.374,-61.2601 15.6765,-15.6765 37.3371,-25.375 61.2601,-25.375 z m 79.3259,121.5122 c -4.361,9.9037 -10.5209,18.8366 -18.0668,26.3825 -15.6754,15.6775 -37.336,25.3739 -61.2591,25.3739 -23.923,0 -45.5836,-9.6975 -61.2601,-25.3739 -7.5459,-7.5459 -13.7048,-16.4788 -18.0658,-26.3825 h 3.7686 c 4.1434,8.9602 9.8326,17.0588 16.7262,23.9534 15.0567,15.0557 35.8573,24.3696 58.8311,24.3696 22.9749,0 43.7754,-9.3139 58.8301,-24.3696 6.8947,-6.8946 12.5828,-14.9932 16.7262,-23.9534 z"/>
    <path
      id="path4"
      style="fill:#ffffff;fill-rule:evenodd"
      d="m 150.4971,260.1503 c -8.0089,-5.8506 -15.3986,-13.0603 -12.4983,-23.9205 1.2106,-4.0841 4.3074,-7.6474 8.7014,-11.1247 l -0.545,-0.3 c -8.4539,-4.6694 -21.0012,-12.3782 -25.174,-17.3667 -8.2203,-10.623 -1.2555,-25.7225 9.3459,-32.6569 4.511,0.6713 9.0107,1.157 13.5027,1.4571 1.538,9.2443 -11.5135,8.126 -14.9892,11.9126 -10.5771,11.3629 6.9081,20.8227 22.2824,30.3006 l -0.2114,-12.1792 0.003,-2.5563 -0.5058,-23.2703 c -0.0804,-4.4085 6.2378,-4.5652 6.6431,-0.196 l -0.6311,23.623 -0.0743,2.3996 -0.1913,12.405 c 15.463,-9.5562 33.305,-19.0748 22.6459,-30.5264 -3.4607,-3.7712 -16.4236,-2.677 -15.0087,-11.8022 4.6126,-0.2604 9.2123,-0.7208 13.8027,-1.3824 10.4426,7.0159 17.2151,21.9427 9.0649,32.4718 -4.1728,4.9885 -16.7196,12.6973 -25.175,17.3667 l -0.5455,0.2975 c 4.3961,3.4798 7.4912,7.0431 8.7019,11.1272 2.9003,10.8602 -4.4894,18.0699 -12.4983,23.9205 0.3285,0.3114 0.6502,0.6208 0.9647,0.9312 3.3128,3.9774 5.4742,9.1376 6.4569,14.6984 0.9606,4.8523 -2.3408,5.6283 -3.7505,-0.0196 -1.0312,-3.799 -2.9693,-7.2778 -5.3679,-10.4091 l 0.009,17.9756 c -0.2078,1.8448 -3.2632,1.8484 -3.4504,0 l -0.006,-17.9137 c -2.2872,3.0478 -4.1779,6.6828 -5.1705,10.3513 -0.8992,5.0689 -4.6291,5.6077 -3.7428,-0.0144 0.9848,-5.5474 3.1411,-10.6999 6.4492,-14.6685 0.314,-0.3104 0.6363,-0.6198 0.9632,-0.9312 z m -26.5155,-95.3158 0.0165,-0.005 0.0525,-0.0129 0.0681,-0.0175 0.0696,-0.017 0.0103,-0.004 0.0588,-0.0145 0.0691,-0.0175 0.0696,-0.018 0.003,-0.002 0.1356,-0.033 0.067,-0.018 h 0.004 l 0.0691,-0.0181 0.0706,-0.018 0.0593,-0.0139 0.0104,-0.003 0.0701,-0.0181 0.0706,-0.018 0.0516,-0.0139 0.0191,-0.004 0.069,-0.018 0.0707,-0.0175 0.0448,-0.0119 0.0258,-0.006 0.0707,-0.018 0.0706,-0.0181 0.0381,-0.0103 0.0325,-0.008 0.0717,-0.0176 0.1,-0.0273 0.0413,-0.0103 0.0701,-0.0175 0.0706,-0.0196 0.0232,-0.006 0.0475,-0.0119 0.0706,-0.019 0.0707,-0.0181 0.0165,-0.005 0.0551,-0.014 0.0707,-0.019 0.0706,-0.0196 0.009,-0.003 0.0613,-0.0165 0.0707,-0.0191 0.0706,-0.0196 0.002,-0.001 0.0691,-0.0181 0.0707,-0.0206 0.0639,-0.018 0.005,-0.001 0.0706,-0.0206 0.0706,-0.0206 0.0562,-0.0165 0.0129,-0.003 0.0707,-0.0206 0.0691,-0.0217 0.05,-0.0139 0.0206,-0.007 0.0691,-0.0206 0.0696,-0.0217 0.0423,-0.0129 0.0268,-0.008 0.0691,-0.0217 0.0696,-0.0216 0.0356,-0.0119 0.0335,-0.0103 0.068,-0.0227 0.0691,-0.0221 0.0284,-0.009 0.0397,-0.0144 0.068,-0.0217 0.0691,-0.0232 0.0207,-0.008 0.0464,-0.015 0.0675,-0.0247 0.0681,-0.0227 0.0144,-0.005 0.0526,-0.0196 0.0681,-0.0242 0.0665,-0.0242 0.006,-0.003 0.0603,-0.0217 0.0655,-0.0247 0.067,-0.0253 0.0717,0.0676 0.0732,0.0654 0.0727,0.0671 0.0747,0.0639 0.0753,0.0639 0.0758,0.0645 0.0758,0.0613 h 0.002 l 0.0768,0.0619 0.0784,0.0598 0.0778,0.0604 0.0799,0.0593 0.0794,0.0577 h 0.001 l 0.0794,0.0562 h 0.001 l 0.081,0.0567 0.0819,0.0552 0.0836,0.0536 0.083,0.0541 0.0835,0.0526 h 0.001 l 0.0851,0.0511 0.0846,0.05 h 0.001 l 0.0851,0.05 h 0.001 l 0.0861,0.0474 0.0872,0.0475 h 0.001 l 0.0876,0.0474 0.0882,0.0449 0.0887,0.0448 h 0.001 l 0.0887,0.0439 h 0.001 l 0.0903,0.0422 0.0907,0.0413 0.0913,0.0397 0.0923,0.0397 0.0923,0.0387 0.0938,0.0371 0.0933,0.0356 0.0939,0.0361 0.0948,0.0335 0.0949,0.033 h 0.002 l 0.0948,0.0325 0.0959,0.0293 0.0965,0.031 h 0.001 l 0.0964,0.0278 h 0.001 l 0.0965,0.0273 h 0.001 l 0.0974,0.0269 0.099,0.0242 0.099,0.0242 0.1001,0.0222 0.1,0.0217 0.1,0.0206 0.1011,0.0191 0.1015,0.018 0.1011,0.0165 0.1026,0.017 0.1016,0.0139 h 0.001 l 0.1026,0.0129 0.1026,0.0129 0.1042,0.0103 0.1036,0.01 0.1042,0.008 0.1051,0.007 0.1052,0.006 0.1052,0.004 0.1052,0.004 0.1062,0.001 0.1067,0.001 c 4.7127,0 8.5313,-3.8186 8.5313,-8.5297 l -0.002,-0.1129 -0.001,-0.1114 -0.004,-0.1119 -0.005,-0.1113 -0.006,-0.1119 -0.008,-0.1104 -0.009,-0.1103 -0.0114,-0.1103 -0.0113,-0.1088 -0.0144,-0.1093 -0.014,-0.1088 -0.0165,-0.1088 -0.018,-0.1078 -0.018,-0.1067 -0.0207,-0.1062 v -0.002 l -0.0216,-0.1052 v -0.001 l -0.0232,-0.1052 -0.0232,-0.1052 -0.0258,-0.1052 -0.0268,-0.1041 v -0.001 l -0.0279,-0.1026 v -0.002 l -0.0299,-0.1026 -0.0304,-0.1026 -0.0309,-0.1026 -0.0335,-0.1011 -0.0346,-0.1015 -0.0361,-0.1001 v -0.001 l -0.0356,-0.099 v -10e-4 l -0.0386,-0.099 -0.0387,-0.099 -0.0407,-0.0975 v -0.001 l -0.0413,-0.0964 v -0.001 l -0.0423,-0.0965 -0.0448,-0.0959 -0.0449,-0.0964 -0.0464,-0.0949 -0.0474,-0.0938 v -10e-4 l -0.0474,-0.0923 v -0.002 l -0.0501,-0.0923 -0.05,-0.0923 -0.0526,-0.0912 v -0.001 l -0.0526,-0.0898 v -0.002 l -0.0536,-0.0897 -0.0552,-0.0882 v -0.001 l -0.0567,-0.0887 -0.0562,-0.0872 v -0.001 l -0.0587,-0.0861 v -10e-4 l -0.0593,-0.0861 -0.0604,-0.0846 v -0.001 l -0.0603,-0.0846 -0.0629,-0.0835 v -10e-4 l -0.0629,-0.0819 v -0.002 l -0.0639,-0.082 -0.0655,-0.082 -0.0665,-0.0809 -0.0671,-0.0794 -0.0691,-0.0794 -0.068,-0.0784 -0.0707,-0.0784 -0.0701,-0.0768 -0.0732,-0.0758 -0.0717,-0.0742 -0.0747,-0.0748 -0.0743,-0.0727 0.0232,-0.035 0.0232,-0.0346 0.0227,-0.0356 0.0232,-0.035 0.0232,-0.0346 0.0243,-0.0345 0.0232,-0.0361 0.0242,-0.0346 0.0232,-0.0355 0.0242,-0.0351 0.0243,-0.0356 0.0247,-0.0345 0.0242,-0.0361 0.0243,-0.0346 0.0247,-0.036 0.0243,-0.0356 0.0257,-0.0361 0.0243,-0.0346 v -0.002 l 0.0258,-0.0346 0.0252,-0.036 0.0258,-0.0356 0.0242,-0.0361 0.0258,-0.0361 0.0268,-0.0371 0.0258,-0.0356 0.0258,-0.0361 0.0268,-0.0361 0.0258,-0.0371 0.0268,-0.0361 0.0268,-0.0371 0.0273,-0.0356 0.0253,-0.0371 0.0284,-0.0361 v -0.002 l 0.0268,-0.0356 0.0273,-0.0371 0.0278,-0.0376 0.0274,-0.0371 0.0278,-0.0372 0.0284,-0.0371 0.0268,-0.0371 0.0294,-0.0371 0.0283,-0.0372 v -0.001 l 0.0284,-0.0371 0.0283,-0.0371 v -0.002 l 0.0294,-0.0371 0.0284,-0.0371 v -0.001 l 0.0294,-0.0376 0.0294,-0.0382 0.0294,-0.0386 0.0293,-0.0372 v -0.001 l 0.0299,-0.0376 v -0.001 l 0.0305,-0.0386 0.0299,-0.0382 0.0304,-0.0387 0.0309,-0.0386 v -0.001 l 0.0294,-0.0386 0.031,-0.0382 v -0.002 l 0.0309,-0.0387 0.032,-0.0382 v -0.001 l 0.0309,-0.0382 v -0.001 l 0.032,-0.0382 v -0.001 l 0.0304,-0.0382 v -0.001 l 0.0325,-0.0387 v -0.001 l 0.0319,-0.0387 v -0.001 l 0.2589,-0.3053 v -0.001 l 0.2722,-0.2949 v -0.001 l 0.2831,-0.2861 v -0.002 l 0.2954,-0.2758 v -0.001 l 0.3078,-0.2656 v -0.001 l 0.3182,-0.2568 v -0.001 l 0.3284,-0.246 v -0.002 l 0.3382,-0.2357 v -0.002 l 0.3491,-0.2269 v -10e-4 l 0.3578,-0.2166 0.3666,-0.2078 v -10e-4 l 0.3759,-0.1959 v -0.002 l 0.3836,-0.1871 v -0.001 l 0.3898,-0.1773 v -10e-4 l 0.3991,-0.1681 v -0.002 l 0.4053,-0.1578 v -0.001 l 0.4119,-0.1475 v -0.001 l 0.4166,-0.1382 0.4234,-0.1299 0.4284,-0.1191 v -10e-4 l 0.4336,-0.1093 0.4373,-0.1 v -0.001 l 0.4413,-0.0887 v -0.002 l 0.445,-0.0794 v -0.001 l 0.4481,-0.0706 0.4511,-0.0604 v -0.001 l 0.4527,-0.05 v -0.002 l 0.4543,-0.0412 0.4568,-0.032 0.4563,-0.0216 0.4579,-0.0129 0.4578,-0.003 0.4584,0.007 v 0.001 l 0.4579,0.0165 0.4552,0.0258 0.4553,0.0361 v 0.001 l 0.4527,0.0449 0.4501,0.0552 v 0.001 l 0.4481,0.0639 0.4434,0.0758 0.4414,0.0846 0.4372,0.0938 0.4326,0.1037 0.4269,0.1144 0.4233,0.1228 0.4172,0.1325 0.4104,0.1423 v 0.001 l 0.4037,0.1516 0.3975,0.1614 0.3903,0.1722 0.3821,0.1804 0.3743,0.1903 v 10e-4 l 0.3656,0.1991 v 0.001 l 0.3568,0.2093 0.3475,0.2192 0.3388,0.2284 v 0.001 l 0.3269,0.2377 v 0.001 l 0.3171,0.2475 0.3052,0.2578 0.2939,0.2671 v 0.001 l 0.282,0.2759 v 0.001 c 0.0908,0.0934 0.1836,0.1872 0.2707,0.2846 v 0.001 l 0.2578,0.2949 v 0.002 l 0.2434,0.3042 v 0.001 l 0.0479,0.049 v 0.001 l 0.0475,0.0474 v 0.002 l 0.0474,0.0485 v 0.001 l 0.0459,0.0474 v 10e-4 l 0.0449,0.0474 h 0.001 l 0.0449,0.0474 v 0.002 l 0.0448,0.0459 v 0.001 l 0.0433,0.0475 h 0.002 l 0.0433,0.0458 v 0.002 l 0.0428,0.0459 h 0.001 l 0.0423,0.0464 v 10e-4 l 0.0423,0.0454 0.001,0.001 0.0408,0.0449 0.0412,0.0464 h 0.001 l 0.0403,0.0448 h 0.001 l 0.0397,0.0449 h 0.001 l 0.0397,0.0449 0.0397,0.0448 0.0387,0.0433 h 0.001 l 0.0387,0.0439 0.0382,0.0438 0.0386,0.0433 0.0372,0.0438 0.0371,0.0423 h 0.001 l 0.0356,0.0423 0.0361,0.0423 h 0.001 l 0.0351,0.0422 h 0.001 l 0.0707,0.0836 0.0345,0.0412 0.0346,0.0407 0.0335,0.0413 h 0.001 l 0.0335,0.0397 v 0.001 l 0.0335,0.0397 0.0335,0.0402 0.032,0.0397 v 0.001 l 0.032,0.0386 0.0319,0.0397 0.032,0.0387 v 0.001 l 0.031,0.0387 0.0309,0.0382 v 0.001 l 0.0304,0.0371 v 10e-4 l 0.0603,0.0758 v 0.002 l 0.0299,0.0356 v 0.001 l 0.0279,0.0372 v 0.001 l 0.0294,0.0361 v 0.002 l 0.0283,0.0372 0.0284,0.0371 v 0.001 l 0.0283,0.0361 v 0.002 l 0.0269,0.0355 0.0283,0.0361 v 10e-4 l 0.0268,0.036 v 0.001 l 0.0258,0.035 v 0.001 l 0.0268,0.0361 v 0.001 l 0.0258,0.0345 v 0.002 l 0.0253,0.0345 v 0.002 l 0.0257,0.0345 v 0.001 l 0.0258,0.0345 v 0.001 l 0.0243,0.0346 v 0.001 l 0.0257,0.033 v 0.002 l 0.0243,0.0345 v 0.001 l 0.0232,0.035 v 0.001 l 0.0242,0.0335 v 10e-4 l -0.033,0.0361 -0.0325,0.0345 v 0.002 l -0.0639,0.0717 -0.0397,0.0458 -0.0232,0.0258 v 0.002 l -0.0629,0.0727 v 0.001 l -0.0459,0.0536 -0.0155,0.0196 v 0.001 l -0.0618,0.0732 v 0.001 l -0.0526,0.0655 -0.008,0.0103 v 0.002 l -0.0588,0.0742 v 0.001 l -0.0577,0.0753 -0.001,0.002 v 10e-4 l -0.0567,0.0758 v 0.002 l -0.0578,0.0779 v 0.001 l -0.005,0.006 -0.05,0.0722 v 0.001 l -0.0551,0.0784 v 0.001 l -0.0114,0.0154 -0.0423,0.064 v 0.002 l -0.0541,0.0794 v 0.002 l -0.0165,0.0252 -0.0345,0.0552 v 0.001 l -0.0526,0.081 v 0.001 l -0.0222,0.0361 -0.0278,0.0459 v 0.001 l -0.049,0.0836 -0.0284,0.0474 -0.0201,0.0356 v 10e-4 l -0.049,0.0846 -0.0309,0.0577 -0.015,0.0268 v 0.002 l -0.0464,0.0856 -0.0361,0.068 -0.009,0.0181 v 0.001 l -0.0439,0.0861 v 0.002 l -0.0381,0.0794 -0.004,0.008 -0.0423,0.0882 -0.0407,0.0887 v 0.001 l -0.002,0.001 -0.0387,0.0872 v 0.001 l -0.0381,0.0882 v 0.002 l -0.005,0.0114 -0.0335,0.0784 -0.0356,0.0912 -0.0103,0.0227 -0.0258,0.0681 v 0.001 l -0.0345,0.0908 v 0.002 l -0.0346,0.0908 v 0.001 l -0.0324,0.0923 -0.032,0.0938 -0.0309,0.0949 -0.0176,0.0562 -0.0118,0.0371 v 0.002 l -0.0279,0.0933 v 0.001 l -0.0206,0.0681 -0.008,0.0268 -0.0258,0.0964 -0.0258,0.0959 -0.0242,0.0965 v 0.001 l -0.0217,0.0923 v 0.004 0.001 l -0.0232,0.0975 -0.0206,0.0974 -0.001,0.008 -0.0181,0.0912 -0.0196,0.099 -0.002,0.0191 -0.0145,0.081 -0.0165,0.0984 v 0.002 l -0.004,0.0294 -0.0103,0.0706 -0.0139,0.1 -0.0129,0.1011 -0.0114,0.1016 -0.0103,0.101 -0.009,0.1016 -0.009,0.1026 -0.006,0.1026 -0.004,0.0794 -0.001,0.0232 -0.005,0.1037 -0.003,0.1041 -0.003,0.1036 v 0.1042 c 0,4.7111 3.8186,8.5297 8.5312,8.5297 h 0.1052 l 0.1052,-0.003 h 0.01 0.0155 l 0.0799,-0.003 0.1052,-0.005 0.0175,-0.001 0.0861,-0.004 0.1042,-0.008 0.1036,-0.008 0.1026,-0.009 0.1026,-0.0114 0.1026,-0.0118 0.1026,-0.0129 0.1016,-0.014 0.0552,-0.009 0.0458,-0.007 0.1016,-0.0165 0.0629,-0.0119 0.0382,-0.006 0.1,-0.019 0.099,-0.0207 0.1,-0.0206 0.0985,-0.0232 0.099,-0.0232 0.0871,-0.0217 0.0104,-0.002 0.0974,-0.0268 0.0975,-0.0269 0.0964,-0.0273 v -0.001 l 0.0959,-0.0284 0.008,-0.002 0.0887,-0.0279 0.0949,-0.0309 0.0948,-0.0335 0.0939,-0.033 0.0933,-0.0351 0.0938,-0.0356 0.0923,-0.0361 0.0923,-0.0386 0.0913,-0.0382 0.0907,-0.0397 0.0897,-0.0412 0.0903,-0.0413 v -0.001 l 0.0551,-0.0258 0.0346,-0.0165 0.0882,-0.0438 0.0886,-0.0449 0.0872,-0.0459 0.0696,-0.0371 0.0175,-0.009 0.0861,-0.0474 v -0.001 l 0.0758,-0.0428 0.0103,-0.005 v -0.001 l 0.0846,-0.049 v -10e-4 l 0.082,-0.049 0.003,-0.001 0.167,-0.1041 0.005,-0.004 0.0783,-0.05 0.082,-0.0537 v -10e-4 l 0.0119,-0.008 0.0691,-0.0459 v -0.002 l 0.0809,-0.0551 v -0.001 l 0.0191,-0.0129 0.0603,-0.0438 0.0794,-0.0577 0.0784,-0.0588 0.0768,-0.0593 v -0.001 l 0.0335,-0.0243 0.0449,-0.0361 0.0758,-0.0618 0.0386,-0.0305 0.0372,-0.0309 v -0.001 l 0.0742,-0.0619 v -0.001 l 0.0449,-0.0387 0.0294,-0.0242 v -0.002 l 0.0732,-0.0639 v -0.002 l 0.05,-0.0433 0.0232,-0.0206 v -0.001 l 0.0717,-0.0655 v -0.002 l 0.2346,0.0887 0.0593,0.0217 0.0587,0.0206 0.0145,0.006 0.0459,0.0155 0.0593,0.0206 0.1804,0.0613 0.0603,0.0207 0.0284,0.0103 0.0335,0.0103 0.0603,0.0206 0.1846,0.0588 0.0614,0.0196 0.0423,0.0139 0.0196,0.005 0.0613,0.019 0.0629,0.0196 0.049,0.015 0.0124,0.003 0.0629,0.0196 0.0619,0.019 0.0577,0.0165 0.005,0.002 0.0629,0.018 0.0624,0.0191 0.0629,0.018 0.001,0.001 0.0614,0.017 0.0629,0.0175 0.0629,0.0181 0.009,0.003 0.0542,0.0155 0.0639,0.0181 0.0629,0.0165 0.0155,0.005 0.049,0.0129 0.0623,0.0181 0.0645,0.0165 0.0217,0.007 0.0412,0.0113 0.0639,0.0165 0.0645,0.017 0.0294,0.009 0.033,0.009 0.0644,0.0165 0.064,0.0165 0.0361,0.0103 0.0268,0.007 0.0644,0.0165 0.064,0.018 0.0433,0.0114 0.0196,0.005 0.0639,0.017 0.0644,0.0165 0.0511,0.014 0.0129,0.002 0.0629,0.017 0.1913,0.0485 0.0639,0.0165 0.0629,0.017 0.001,10e-4 0.0629,0.0154 0.0629,0.0165 0.064,0.017 0.008,0.003 0.0552,0.0139 0.1902,0.049 0.0624,0.0165 c 2.8312,0.7451 5.3721,1.5407 5.4361,3.7825 l 0.085,0.0196 c -6.1006,1.389 -12.2188,2.4187 -18.3591,3.0921 -0.3295,0.0258 -0.6518,0.0541 -0.9647,0.0861 -11.4784,1.1658 -22.1365,1.1276 -34.0728,-0.0768 l -0.0747,-0.008 c -6.095,-0.6569 -12.2111,-1.6535 -18.3432,-2.9858 l 0.2717,-0.0851 -0.1768,-0.0253 c 0,-2.2191 2.3588,-3.007 5.1344,-3.7252 z m 27.3533,65.7912 c -6.0351,3.9439 -7.913,7.0535 -7.8913,13.5682 0.0139,3.7134 3.9531,7.4072 8.3208,11.2041 z m 4.6405,-0.2145 c 6.3017,4.0486 8.2425,7.1551 8.2208,13.7827 -0.0129,3.7928 -4.1212,7.5624 -8.6055,11.448 z"/>
    <path
      id="path6"
      style="fill:#ffffff;fill-rule:evenodd"
      d="m 134.2931,150.9368 0.1269,0.003 c 3.4901,0.0681 6.2981,2.9153 6.2981,6.4224 0,3.5056 -2.808,6.3543 -6.2981,6.4224 l -0.1269,0.003 h -0.0386 l -0.1269,-0.003 c -0.9734,-0.0191 -1.8917,-0.2527 -2.7131,-0.6579 l -0.0103,-0.005 -0.0124,-0.007 c -0.398,-0.1882 -0.8234,-0.4501 -1.2663,-0.8311 l -0.009,-0.008 c -0.4222,-0.3563 -0.7991,-0.7641 -1.1173,-1.2158 -1.2967,-1.7314 -2.6332,-4.7384 -3.7247,-10.1012 h 8.4693 c 0.1269,-0.0103 0.2552,-0.0165 0.3836,-0.0191 l 0.1269,-0.003 z"/>
    <path
      id="path8"
      style="fill:#ffffff;fill-rule:evenodd"
      d="m 175.226,150.9368 c 0.1769,0 0.3512,0.009 0.5234,0.0217 h 8.4554 c -1.0946,5.3783 -2.4363,8.3863 -3.7366,10.1167 -0.3181,0.4486 -0.694,0.8554 -1.1148,1.2081 l -0.0412,0.036 -0.0614,0.0511 -0.0587,0.0464 c -0.3543,0.2862 -0.6992,0.4991 -1.0251,0.6595 l -0.0165,0.008 -0.0758,0.0371 c -0.8584,0.4244 -1.8252,0.6657 -2.8487,0.6657 -3.5494,0 -6.4249,-2.8771 -6.4249,-6.425 0,-3.5494 2.8755,-6.425 6.4249,-6.425 z"/>
    <path
      id="path10"
      style="fill:#ffffff;fill-rule:evenodd"
      d="m 117.6479,238.6171 c 0,0.2165 -0.0114,0.3975 -0.0361,0.5476 -0.0227,0.15 -0.0547,0.2717 -0.0985,0.3588 -0.0423,0.0861 -0.0897,0.1526 -0.1449,0.1887 -0.0516,0.0397 -0.1145,0.0593 -0.1861,0.0593 h -8.2358 c -0.0629,0 -0.1232,-0.0196 -0.1732,-0.0593 -0.0552,-0.0361 -0.1027,-0.1026 -0.1465,-0.1887 -0.0433,-0.0871 -0.0742,-0.2088 -0.0985,-0.3588 -0.0232,-0.1501 -0.0361,-0.3311 -0.0361,-0.5476 0,-0.2248 0.0129,-0.4094 0.032,-0.5594 0.0191,-0.1501 0.0475,-0.2718 0.0913,-0.363 0.0423,-0.0939 0.0897,-0.1604 0.1449,-0.2042 0.051,-0.0397 0.1139,-0.0629 0.1861,-0.0629 h 2.7807 v -9.7187 l -2.4038,1.3277 c -0.1768,0.0872 -0.3181,0.1387 -0.4321,0.1578 -0.1103,0.0191 -0.198,-0.004 -0.2645,-0.0706 -0.0665,-0.064 -0.1103,-0.1784 -0.1346,-0.3388 -0.019,-0.1614 -0.0309,-0.3908 -0.0309,-0.6821 0,-0.1846 0.004,-0.3347 0.0119,-0.4569 0.004,-0.118 0.0242,-0.2206 0.0551,-0.3037 0.032,-0.0861 0.0743,-0.1526 0.1253,-0.2077 0.0552,-0.0552 0.131,-0.1104 0.2207,-0.1733 l 3.2107,-2.0768 c 0.0361,-0.032 0.0835,-0.0552 0.1423,-0.0743 0.0593,-0.0206 0.1335,-0.0361 0.2243,-0.0474 0.0954,-0.0119 0.2129,-0.0206 0.3671,-0.0243 0.1485,-0.004 0.3424,-0.004 0.5821,-0.004 0.2913,0 0.5285,0.004 0.7095,0.0165 0.181,0.0119 0.3155,0.031 0.4094,0.0593 0.0907,0.0232 0.1536,0.0629 0.1856,0.1062 0.0273,0.0464 0.0423,0.1068 0.0423,0.1733 v 12.3379 h 2.4347 c 0.0716,0 0.1345,0.0232 0.1938,0.0629 0.0552,0.0438 0.1062,0.1103 0.1501,0.2042 0.0423,0.0912 0.0706,0.2129 0.0897,0.363 0.0206,0.15 0.032,0.3346 0.032,0.5594 z m 12.1523,-6.9921 c 0,0.6068 -0.0325,1.2364 -0.0949,1.8871 -0.0593,0.6502 -0.1774,1.2838 -0.3506,1.9098 -0.1728,0.6234 -0.4141,1.2132 -0.7167,1.7778 -0.3027,0.5589 -0.6976,1.0518 -1.1777,1.4684 -0.481,0.4223 -1.0647,0.7528 -1.7535,1.0008 -0.6884,0.2449 -1.5004,0.3666 -2.4419,0.3666 -0.3311,0 -0.658,-0.0206 -0.9854,-0.0665 -0.3269,-0.0474 -0.6259,-0.1067 -0.894,-0.1748 -0.2717,-0.0706 -0.5002,-0.1407 -0.6847,-0.2207 -0.1898,-0.0742 -0.3269,-0.1526 -0.4105,-0.2356 -0.0861,-0.0784 -0.15,-0.1964 -0.1846,-0.3501 -0.0402,-0.1542 -0.0592,-0.3707 -0.0592,-0.6466 0,-0.2552 0.004,-0.4604 0.0154,-0.6146 0.0114,-0.1536 0.0361,-0.2717 0.0707,-0.3537 0.0355,-0.0876 0.0758,-0.1428 0.1268,-0.1696 0.0516,-0.0284 0.1103,-0.0397 0.181,-0.0397 0.0912,0 0.2207,0.0268 0.3898,0.0784 0.1696,0.0551 0.3748,0.118 0.6182,0.1856 0.2397,0.0706 0.5156,0.1299 0.8234,0.1851 0.3119,0.0552 0.6507,0.082 1.0286,0.082 0.6456,0 1.1931,-0.1181 1.6381,-0.3465 0.4455,-0.232 0.8085,-0.544 1.0879,-0.9374 0.2759,-0.3903 0.4796,-0.843 0.6105,-1.3586 0.1294,-0.5166 0.2052,-1.0596 0.2207,-1.6278 -0.3553,0.2207 -0.7837,0.4182 -1.2839,0.5837 -0.5006,0.1655 -1.0724,0.2475 -1.7174,0.2475 -0.793,0 -1.4664,-0.1062 -2.0217,-0.3104 -0.5553,-0.2088 -1.0044,-0.5079 -1.3509,-0.9028 -0.3475,-0.394 -0.5986,-0.8699 -0.7564,-1.4288 -0.1578,-0.5646 -0.2362,-1.1982 -0.2362,-1.9077 0,-0.7435 0.114,-1.4298 0.3347,-2.0599 0.2248,-0.6259 0.5553,-1.1699 0.993,-1.6262 0.4414,-0.4578 0.9848,-0.8121 1.6381,-1.0683 0.6538,-0.2516 1.4148,-0.3785 2.2728,-0.3785 0.694,0 1.3004,0.0794 1.8201,0.2408 0.5207,0.1619 0.9657,0.3939 1.339,0.693 0.3707,0.3001 0.6863,0.6615 0.9338,1.0915 0.249,0.4259 0.4449,0.9018 0.5872,1.4262 0.1465,0.5197 0.2439,1.0864 0.3032,1.6932 0.0547,0.6105 0.0872,1.2452 0.0872,1.9073 z m -3.0132,-0.4182 c 0,-0.8234 -0.0475,-1.5123 -0.1387,-2.064 -0.0949,-0.5553 -0.2321,-0.9966 -0.4166,-1.3271 -0.1862,-0.331 -0.4146,-0.5672 -0.6904,-0.7059 -0.2795,-0.1371 -0.6028,-0.2088 -0.9735,-0.2088 -0.3578,0 -0.6693,0.0681 -0.9322,0.1939 -0.2604,0.1253 -0.4775,0.3026 -0.6507,0.5357 -0.1727,0.2325 -0.3037,0.5042 -0.3898,0.8188 -0.083,0.3155 -0.1258,0.6615 -0.1258,1.0399 0,0.4068 0.035,0.7647 0.1103,1.0802 0.0748,0.3104 0.1887,0.5667 0.3465,0.7719 0.1578,0.2042 0.362,0.3542 0.6182,0.4568 0.2527,0.0985 0.5594,0.1501 0.9224,0.1501 0.445,0 0.8657,-0.0681 1.2633,-0.2053 0.3949,-0.1335 0.7491,-0.3119 1.057,-0.5362 z m 60.151,7.3319 c 0,0.2207 -0.0155,0.4141 -0.0309,0.5708 -0.015,0.1536 -0.0511,0.2862 -0.0872,0.3862 -0.033,0.0959 -0.0897,0.1706 -0.15,0.2129 -0.0578,0.0397 -0.1346,0.0629 -0.2037,0.0629 h -8.5879 c -0.164,0 -0.3166,-0.0196 -0.4372,-0.0479 -0.1233,-0.0294 -0.2295,-0.0897 -0.3037,-0.1769 -0.0748,-0.0856 -0.1325,-0.2191 -0.1655,-0.3862 -0.0325,-0.1665 -0.0516,-0.3898 -0.0516,-0.6579 0,-0.2562 0.0165,-0.4743 0.0361,-0.6543 0.018,-0.1779 0.0655,-0.3423 0.1258,-0.4831 0.0598,-0.1413 0.1423,-0.281 0.2372,-0.4145 0.0949,-0.131 0.2217,-0.2821 0.3733,-0.445 l 2.5842,-2.7693 c 0.5094,-0.5466 0.9363,-1.0312 1.2493,-1.4741 0.312,-0.4383 0.5636,-0.8477 0.7363,-1.2081 0.1758,-0.363 0.3032,-0.7069 0.3656,-1.0132 0.0629,-0.3026 0.0953,-0.5991 0.0953,-0.875 0,-0.2552 -0.0412,-0.5001 -0.118,-0.7208 -0.0784,-0.2268 -0.2042,-0.4269 -0.3579,-0.5939 -0.1552,-0.1666 -0.3583,-0.3037 -0.5955,-0.3986 -0.2408,-0.0954 -0.5207,-0.1454 -0.8425,-0.1454 -0.4542,0 -0.8579,0.0619 -1.206,0.1732 -0.3485,0.1119 -0.6605,0.2475 -0.9219,0.3862 -0.2655,0.1397 -0.4914,0.2759 -0.6656,0.3939 -0.1748,0.1166 -0.3156,0.1769 -0.413,0.1769 -0.0722,0 -0.1336,-0.0258 -0.1826,-0.0706 -0.0433,-0.0408 -0.0907,-0.1253 -0.118,-0.2279 -0.0268,-0.1052 -0.0624,-0.2558 -0.0779,-0.4337 -0.0144,-0.1784 -0.0283,-0.4016 -0.0283,-0.662 0,-0.1769 0.0128,-0.3295 0.0206,-0.445 0.008,-0.1196 0.0304,-0.2258 0.051,-0.3119 0.0222,-0.0856 0.0542,-0.1681 0.0897,-0.232 0.0377,-0.064 0.1078,-0.149 0.2016,-0.2362 0.0949,-0.0897 0.2769,-0.2103 0.5311,-0.3501 0.2588,-0.1413 0.5759,-0.2846 0.9544,-0.4181 0.3785,-0.1336 0.794,-0.2491 1.2442,-0.3388 0.4537,-0.0907 0.9296,-0.1382 1.4225,-0.1382 0.776,0 1.4556,0.0975 2.0367,0.2924 0.5759,0.1938 1.0647,0.4707 1.4457,0.8198 0.3847,0.3501 0.676,0.7693 0.8621,1.2478 0.1872,0.4784 0.2795,0.9966 0.2795,1.5519 0,0.4852 -0.0464,0.9632 -0.1372,1.4303 -0.0897,0.4656 -0.2851,0.9786 -0.5749,1.5159 -0.2908,0.5429 -0.7089,1.1431 -1.2374,1.801 -0.5285,0.6553 -1.2545,1.4112 -2.1114,2.2924 l -1.7407,1.7891 h 5.8851 c 0.0742,0 0.1485,0.0258 0.2129,0.0707 0.064,0.0448 0.1243,0.1165 0.1692,0.2129 0.0412,0.0908 0.0809,0.2233 0.1026,0.3785 0.0206,0.1536 0.0345,0.346 0.0345,0.563 z m 12.2075,-3.7546 c 0,0.7569 -0.1181,1.4561 -0.3465,2.0959 -0.2269,0.6389 -0.5656,1.1983 -1.0121,1.6623 -0.4466,0.4646 -1.0003,0.8327 -1.651,1.0957 -0.6528,0.2629 -1.4097,0.3975 -2.2609,0.3975 -0.693,0 -1.3009,-0.0835 -1.8114,-0.2372 -0.5145,-0.1567 -0.9657,-0.3861 -1.3405,-0.6811 -0.3733,-0.2949 -0.6899,-0.6553 -0.9245,-1.075 -0.2377,-0.4218 -0.4326,-0.9044 -0.5723,-1.4339 -0.1398,-0.53 -0.2413,-1.1096 -0.2914,-1.7293 -0.051,-0.6208 -0.0819,-1.2849 -0.0819,-1.9856 0,-0.5873 0.0294,-1.2004 0.0861,-1.8351 0.0562,-0.6362 0.1706,-1.2663 0.3346,-1.8794 0.1645,-0.6182 0.4017,-1.208 0.6981,-1.7613 0.2975,-0.5563 0.6925,-1.0492 1.1617,-1.4658 0.4707,-0.4172 1.0456,-0.7569 1.7175,-1.0003 0.6697,-0.2439 1.4725,-0.3656 2.395,-0.3656 0.2913,0 0.5888,0.0201 0.8827,0.0511 0.2908,0.0309 0.5744,0.0783 0.827,0.1294 0.2501,0.05 0.4723,0.1181 0.6466,0.1851 0.1758,0.0665 0.2949,0.1356 0.3501,0.182 0.0541,0.0459 0.1041,0.1062 0.1335,0.1655 0.0304,0.0614 0.0588,0.1305 0.0758,0.2001 0.0175,0.0716 0.033,0.168 0.0382,0.2717 0.007,0.1077 0.0128,0.2397 0.0128,0.3939 0,0.2362 -0.006,0.4398 -0.0165,0.595 -0.009,0.1552 -0.0345,0.281 -0.0629,0.3707 -0.0283,0.0846 -0.0783,0.1501 -0.1294,0.1887 -0.05,0.0361 -0.118,0.0588 -0.1938,0.0588 -0.0939,0 -0.213,-0.0294 -0.3579,-0.0778 -0.1449,-0.049 -0.3233,-0.1026 -0.5326,-0.1655 -0.2088,-0.0629 -0.4527,-0.1145 -0.7321,-0.1619 -0.2795,-0.0475 -0.6069,-0.0717 -0.9776,-0.0717 -0.6219,0 -1.1519,0.1206 -1.5788,0.3475 -0.4269,0.2284 -0.7837,0.5466 -1.0519,0.9415 -0.2665,0.395 -0.4681,0.8569 -0.5872,1.3787 -0.1197,0.5208 -0.1887,1.0787 -0.1965,1.6623 0.1691,-0.1062 0.362,-0.2165 0.5821,-0.3232 0.2207,-0.1063 0.4594,-0.2011 0.7172,-0.2754 0.2542,-0.0747 0.5389,-0.1474 0.8353,-0.1938 0.2975,-0.0464 0.6182,-0.0743 0.958,-0.0743 0.7554,0 1.4045,0.1052 1.9418,0.3114 0.5352,0.2042 0.9786,0.5069 1.3189,0.8905 0.3408,0.3831 0.5976,0.8528 0.7564,1.3942 0.1593,0.545 0.2403,1.1544 0.2403,1.8237 z m -2.9735,0.2913 c 0,-0.3939 -0.0397,-0.7373 -0.1062,-1.0364 -0.0655,-0.2913 -0.181,-0.5424 -0.3352,-0.7476 -0.1536,-0.2052 -0.3614,-0.3604 -0.6105,-0.4604 -0.2536,-0.1026 -0.563,-0.1578 -0.9219,-0.1578 -0.217,0 -0.4325,0.0216 -0.6378,0.0588 -0.2026,0.0371 -0.4114,0.0948 -0.6104,0.1614 -0.1975,0.067 -0.394,0.1526 -0.576,0.248 -0.182,0.0933 -0.3578,0.1974 -0.5197,0.3078 0,0.8234 0.0505,1.5107 0.1377,2.0557 0.0881,0.5491 0.2304,0.9915 0.4104,1.3122 0.1784,0.3197 0.4063,0.5533 0.6811,0.6853 0.2707,0.1319 0.5914,0.2052 0.9528,0.2052 0.3501,0 0.6631,-0.0696 0.9261,-0.1975 0.2671,-0.1284 0.4888,-0.3181 0.6656,-0.5553 0.1748,-0.2362 0.312,-0.5197 0.4017,-0.8353 0.0897,-0.3181 0.1423,-0.6698 0.1423,-1.0441 z"/>
    <path
      id="path12"
      style="fill:#ffffff;fill-rule:evenodd"
      d="m 152.4394,203.4404 c 0.2134,-0.1206 0.4753,-0.2552 0.6888,-0.3758 -0.3573,-1.2885 -1.0993,-2.3383 -2.1428,-3.2004 -0.724,-0.5105 -0.6404,-1.9108 -1.336,-2.8668 -2.4558,-4.0882 -7.0808,-5.3087 -14.1379,-3.3117 2.1125,3.9155 4.6745,7.4593 10.2136,8.5441 3.8037,0.8069 3.5438,-2.2542 4.9818,-1.2524 0.7131,0.4449 1.3231,1.0606 1.7325,2.463 z"/>
    <path
      id="path14"
      style="fill:#ffffff;fill-rule:evenodd"
      d="m 154.939,203.4404 c -0.2134,-0.1206 -0.4754,-0.2552 -0.6888,-0.3758 0.3573,-1.2885 1.0992,-2.3383 2.1428,-3.2004 0.7239,-0.5105 0.6404,-1.9108 1.336,-2.8668 2.4558,-4.0882 7.0808,-5.3087 14.1379,-3.3117 -2.1125,3.9155 -4.6745,7.4593 -10.2137,8.5441 -3.8036,0.8069 -3.5437,-2.2542 -4.9817,-1.2524 -0.7131,0.4449 -1.3231,1.0606 -1.7325,2.463 z"/>
    <path
      id="path16"
      style="fill:#ffffff;fill-rule:evenodd"
      d="m 290.3746,160.5044 c 0,8.0796 -3.6463,12.1229 -10.9442,12.1229 -6.9844,0 -10.4786,-3.8861 -10.4786,-11.664 v -17.6064 h 3.3715 v 17.3862 c 0,5.9011 2.4945,8.8545 7.4701,8.8545 4.8044,0 7.2092,-2.8502 7.2092,-8.5523 v -17.6884 h 3.372 z m 28.3253,11.6429 h -3.8206 l -13.678,-21.1862 c -0.347,-0.5316 -0.6316,-1.088 -0.8538,-1.6639 h -0.1073 c 0.0944,0.5692 0.1454,1.784 0.1454,3.65 v 19.2001 h -3.1122 v -26.5764 h 4.0357 l 13.3103,20.8511 c 0.5564,0.8611 0.9178,1.4551 1.0761,1.7778 h 0.0753 c -0.1263,-0.7656 -0.1898,-2.0681 -0.1898,-3.9093 v -18.7196 h 3.1189 z m 10.077,0 h -3.1116 v -26.5764 h 3.1116 z m 38.4956,-26.5764 -7.5036,26.5764 h -3.6494 l -5.4721,-19.4208 c -0.2341,-0.8291 -0.3733,-1.7335 -0.4244,-2.708 h -0.0753 c -0.0696,0.9106 -0.2351,1.8026 -0.481,2.6693 l -5.5041,19.4595 h -3.6123 l -7.7877,-26.5764 h 3.4293 l 5.6556,20.3835 c 0.2341,0.8538 0.3795,1.7458 0.4429,2.6693 h 0.0949 c 0.0567,-0.6518 0.2527,-1.5438 0.5749,-2.6693 l 5.8707,-20.3835 h 2.9864 l 5.6371,20.5351 c 0.1959,0.7022 0.3413,1.5313 0.4429,2.4795 h 0.0753 c 0.0448,-0.6388 0.215,-1.4927 0.4996,-2.5553 L 363.9,145.5709 Z m 18.0297,26.5764 h -14.0817 v -26.5764 h 13.4934 v 2.8158 h -10.3812 v 8.8441 h 9.6032 v 2.7957 h -9.6032 v 9.3056 h 10.9695 z m 24.1721,0 h -3.7072 l -4.4532,-7.4515 c -0.4053,-0.6899 -0.8034,-1.2782 -1.1834,-1.7716 -0.3851,-0.4878 -0.778,-0.8859 -1.1761,-1.1895 -0.4052,-0.3104 -0.8352,-0.5383 -1.2967,-0.6776 -0.462,-0.1454 -0.9874,-0.215 -1.5695,-0.215 h -2.5559 v 11.3052 h -3.1116 v -26.5764 h 7.9325 c 1.1576,0 2.2331,0.1454 3.2133,0.4373 0.9812,0.2903 1.835,0.7275 2.5569,1.3215 0.727,0.595 1.2895,1.3344 1.6948,2.214 0.4109,0.8858 0.6141,1.917 0.6141,3.106 0,0.9239 -0.1398,1.7783 -0.4182,2.5497 -0.2779,0.7723 -0.6708,1.4612 -1.1833,2.0624 -0.5115,0.6079 -1.1318,1.1261 -1.8531,1.5504 -0.7275,0.4238 -1.5375,0.759 -2.4419,0.9931 v 0.0758 c 0.4496,0.1959 0.8348,0.4176 1.1642,0.6708 0.3223,0.2593 0.6389,0.5563 0.9297,0.9043 0.2975,0.3414 0.595,0.7337 0.8853,1.1766 0.2918,0.4368 0.6141,0.9493 0.9683,1.5242 z m -15.942,-23.7606 v 9.6413 h 4.2265 c 0.7775,0 1.4988,-0.1207 2.1567,-0.3543 0.6646,-0.2351 1.2339,-0.5702 1.7149,-1.0131 0.4806,-0.4362 0.8595,-0.9735 1.1323,-1.6134 0.2717,-0.6321 0.4053,-1.3472 0.4053,-2.1377 0,-1.423 -0.4558,-2.5305 -1.3793,-3.3277 -0.9178,-0.7971 -2.2521,-1.1951 -3.9918,-1.1951 z m 18.353,22.6851 v -3.6691 c 0.4171,0.3728 0.9168,0.7023 1.5061,0.9998 0.5878,0.2975 1.2081,0.5506 1.8531,0.7527 0.6517,0.2027 1.3034,0.361 1.9546,0.4744 0.6585,0.1078 1.2659,0.1645 1.816,0.1645 1.9165,0 3.3468,-0.3542 4.295,-1.0689 0.9425,-0.7089 1.4174,-1.7267 1.4174,-3.0622 0,-0.7208 -0.1583,-1.3405 -0.4749,-1.8721 -0.316,-0.5316 -0.7522,-1.0189 -1.3024,-1.4551 -0.5574,-0.4429 -1.2153,-0.8605 -1.9748,-1.2585 -0.7651,-0.4053 -1.5813,-0.8291 -2.4599,-1.272 -0.9235,-0.4687 -1.7902,-0.9493 -2.5945,-1.4303 -0.8028,-0.4806 -1.4989,-1.0122 -2.0939,-1.5943 -0.594,-0.5821 -1.056,-1.24 -1.3978,-1.9732 -0.3419,-0.7337 -0.5125,-1.5943 -0.5125,-2.5816 0,-1.2143 0.2655,-2.2641 0.7971,-3.1628 0.5311,-0.8987 1.2338,-1.6319 2.0944,-2.214 0.8662,-0.5821 1.8531,-1.0121 2.9606,-1.2967 1.1008,-0.2846 2.2326,-0.4239 3.3777,-0.4239 2.6193,0 4.5301,0.3094 5.7315,0.9421 v 3.505 c -1.5685,-1.0884 -3.5866,-1.6318 -6.0408,-1.6318 -0.6837,0 -1.3602,0.0696 -2.0439,0.215 -0.677,0.1392 -1.2839,0.3733 -1.8155,0.6893 -0.5315,0.3228 -0.9616,0.7404 -1.2967,1.2462 -0.3351,0.5064 -0.4996,1.1194 -0.4996,1.8542 0,0.6764 0.1263,1.2647 0.3795,1.7582 0.2526,0.4934 0.6259,0.9425 1.1193,1.3534 0.4935,0.4053 1.1009,0.8044 1.8093,1.1834 0.7084,0.3861 1.5313,0.8033 2.4548,1.2647 0.9554,0.4687 1.8531,0.9627 2.7074,1.4809 0.8544,0.5187 1.601,1.0946 2.2398,1.7205 0.6451,0.6332 1.1514,1.3287 1.5309,2.0939 0.3789,0.7713 0.563,1.6453 0.563,2.6317 0,1.3096 -0.2526,2.4233 -0.7652,3.3277 -0.5125,0.9105 -1.209,1.6509 -2.0753,2.2145 -0.8734,0.5692 -1.8788,0.9802 -3.0111,1.2338 -1.1385,0.2527 -2.3409,0.379 -3.5994,0.379 -0.4182,0 -0.9369,-0.0314 -1.5567,-0.1016 -0.614,-0.0696 -1.2462,-0.1639 -1.8917,-0.2975 -0.6388,-0.1263 -1.2462,-0.2903 -1.8222,-0.4805 -0.5754,-0.1892 -1.0368,-0.4042 -1.3787,-0.6388 z m 38.6792,-25.5009 -8.7617,16.7521 v 9.8243 h -3.1189 v -9.7485 l -8.541,-16.8279 h 3.536 l 5.9532,12.0069 c 0.0696,0.1527 0.2918,0.6961 0.6461,1.6324 h 0.0567 c 0.1263,-0.4171 0.3604,-0.9616 0.7017,-1.6324 l 6.2316,-12.0069 z m 20.1421,2.8158 h -7.6737 v 23.7606 h -3.1117 v -23.7606 h -7.6552 v -2.8158 h 18.4406 z m 18.2576,23.7606 h -14.0817 v -26.5764 h 13.4939 v 2.8158 h -10.3817 v 8.8441 h 9.6031 v 2.7957 h -9.6031 v 9.3056 h 10.9695 z m 20.9078,-23.7606 h -7.6738 v 23.7606 h -3.1116 v -23.7606 h -7.6552 v -2.8158 h 18.4406 z m -225.302,71.945 h -15.2558 v -28.7909 h 14.6185 v 3.0503 h -11.2464 v 9.581 h 10.4028 v 3.0286 h -10.4028 v 10.0806 H 284.57 Z m 23.7518,0 h -4.3403 l -10.2673,-12.159 c -0.3862,-0.4558 -0.6197,-0.7657 -0.7022,-0.9235 h -0.0758 v 13.0825 h -3.1122 v -26.5764 h 3.1122 v 12.4874 h 0.0758 c 0.1706,-0.2717 0.4047,-0.5692 0.7022,-0.9043 l 9.9321,-11.5831 h 3.8779 l -11.3995,12.7473 z m 12.5581,0.4429 c -3.7711,0 -6.7884,-1.2401 -9.0535,-3.7263 -2.265,-2.4796 -3.4035,-5.7124 -3.4035,-9.6918 0,-4.2765 1.1575,-7.6857 3.4674,-10.2297 2.3089,-2.5424 5.4593,-3.8144 9.432,-3.8144 3.6752,0 6.6302,1.2338 8.8695,3.701 2.2459,2.4734 3.3653,5.7062 3.3653,9.698 0,4.3332 -1.1513,7.7625 -3.4478,10.2864 -2.296,2.5177 -5.3711,3.7768 -9.2294,3.7768 z m 0.2207,-24.647 c -2.7894,0 -5.0607,1.0054 -6.8003,3.0178 -1.7402,2.0181 -2.6131,4.6621 -2.6131,7.9326 0,3.2772 0.8482,5.9094 2.5497,7.9073 1.6958,1.9934 3.916,2.9926 6.643,2.9926 2.9158,0 5.2128,-0.9482 6.8952,-2.8528 1.6829,-1.9042 2.5182,-4.5673 2.5182,-7.9898 0,-3.5108 -0.81,-6.2188 -2.4424,-8.1353 -1.6319,-1.917 -3.884,-2.8724 -6.7503,-2.8724 z m 39.1087,24.2041 h -3.8207 l -13.6774,-21.1863 c -0.3475,-0.5316 -0.6322,-1.0879 -0.8539,-1.6643 h -0.1077 c 0.0948,0.5692 0.1454,1.7845 0.1454,3.6504 v 19.2002 h -3.1122 v -26.5764 h 4.0356 l 13.3109,20.8511 c 0.5563,0.8605 0.9172,1.455 1.0755,1.7773 h 0.0758 c -0.1263,-0.7652 -0.1902,-2.0681 -0.1902,-3.9088 v -18.7196 h 3.1189 z m 17.6754,0.4429 c -3.7706,0 -6.7879,-1.2401 -9.053,-3.7263 -2.265,-2.4796 -3.4035,-5.7124 -3.4035,-9.6918 0,-4.2765 1.1576,-7.6857 3.467,-10.2297 2.3088,-2.5424 5.4597,-3.8144 9.4324,-3.8144 3.6753,0 6.6297,1.2338 8.869,3.701 2.246,2.4734 3.3658,5.7062 3.3658,9.698 0,4.3332 -1.1513,7.7625 -3.4483,10.2864 -2.296,2.5177 -5.3711,3.7768 -9.2294,3.7768 z m 0.2212,-24.647 c -2.7899,0 -5.0606,1.0054 -6.8003,3.0178 -1.7407,2.0181 -2.6131,4.6621 -2.6131,7.9326 0,3.2772 0.8477,5.9094 2.5497,7.9073 1.6953,1.9934 3.916,2.9926 6.6425,2.9926 2.9158,0 5.2128,-0.9482 6.8957,-2.8528 1.683,-1.9042 2.5177,-4.5673 2.5177,-7.9898 0,-3.5108 -0.81,-6.2188 -2.4419,-8.1353 -1.6324,-1.917 -3.8845,-2.8724 -6.7503,-2.8724 z m 41.8105,24.2041 h -3.0942 v -17.8276 c 0,-0.7085 0.0191,-1.5051 0.064,-2.4038 0.0438,-0.8914 0.1072,-1.8536 0.1959,-2.8786 h -0.0768 c -0.0686,0.2975 -0.1831,0.627 -0.3285,0.9869 -0.1521,0.3671 -0.3104,0.7218 -0.4743,1.057 -0.1712,0.3413 -0.3228,0.645 -0.462,0.9167 -0.1454,0.2728 -0.247,0.4816 -0.3094,0.6141 l -6.8199,12.6019 h -1.519 l -6.8188,-12.5643 c -0.0635,-0.1454 -0.1712,-0.3604 -0.3166,-0.6388 -0.1454,-0.2784 -0.3032,-0.5883 -0.4615,-0.9296 -0.1655,-0.3352 -0.3166,-0.6837 -0.4558,-1.0441 -0.1454,-0.3599 -0.2531,-0.6894 -0.3228,-0.9998 h -0.0752 c 0.0495,0.5311 0.0881,1.2467 0.1134,2.1511 0.0186,0.8982 0.0315,1.9547 0.0315,3.1633 v 17.7956 h -2.9983 v -26.5764 h 3.8903 l 6.8957,12.6395 c 0.2975,0.5564 0.5501,1.0761 0.7589,1.5567 0.2094,0.4805 0.3671,0.9048 0.462,1.2591 h 0.1134 c 0.1207,-0.3671 0.2847,-0.8044 0.4878,-1.2968 0.2088,-0.4939 0.4677,-1.025 0.7899,-1.5942 l 6.8766,-12.5643 h 3.8537 z m 10.0832,0 h -3.1122 v -26.5764 h 3.1122 z m 25.0775,-1.1137 c -1.9614,1.0379 -4.4095,1.5566 -7.3387,1.5566 -3.7835,0 -6.807,-1.2153 -9.0849,-3.6505 -2.2707,-2.4352 -3.4092,-5.6237 -3.4092,-9.5774 0,-4.2517 1.2844,-7.6872 3.8402,-10.3054 2.5554,-2.6193 5.8011,-3.9289 9.73,-3.9289 2.5177,0 4.6049,0.3604 6.2626,1.0879 v 3.3215 c -1.9047,-1.0626 -4.0047,-1.5942 -6.3013,-1.5942 -3.0492,0 -5.5226,1.0183 -7.4205,3.0555 -1.8975,2.0371 -2.8472,4.7637 -2.8472,8.1734 0,3.239 0.8858,5.8196 2.6574,7.7376 1.7773,1.9227 4.0991,2.8838 6.9782,2.8838 2.6693,0 4.9849,-0.594 6.9334,-1.7773 z m 22.7619,-24.7223 -15.5687,23.0208 h 15.1954 v 2.8152 h -19.8452 v -0.873 l 15.4357,-22.8882 h -14.1956 v -2.8152 h 18.9784 z m 25.7282,25.836 h -3.8207 l -13.6774,-21.1863 c -0.3475,-0.5316 -0.6322,-1.0879 -0.8539,-1.6643 h -0.1077 c 0.0948,0.5692 0.1454,1.7845 0.1454,3.6504 v 19.2002 h -3.1117 v -26.5764 h 4.0351 l 13.3109,20.8511 c 0.5563,0.8605 0.9172,1.455 1.0755,1.7773 h 0.0758 c -0.1263,-0.7652 -0.1902,-2.0681 -0.1902,-3.9088 v -18.7196 h 3.1189 z m 24.236,-26.5764 -8.7617,16.752 v 9.8244 h -3.1189 v -9.7491 l -8.541,-16.8273 h 3.536 l 5.9532,12.0069 c 0.0696,0.1521 0.2919,0.6956 0.6461,1.6319 h 0.0567 c 0.1263,-0.4166 0.3604,-0.9611 0.7017,-1.6319 l 6.2316,-12.0069 z m -227.2742,48.1844 -7.5036,26.5758 h -3.6495 l -5.4721,-19.4208 c -0.2341,-0.8291 -0.3733,-1.7335 -0.4244,-2.7079 h -0.0752 c -0.0696,0.9105 -0.2351,1.8025 -0.4811,2.6692 l -5.5041,19.4595 h -3.6123 l -7.7877,-26.5758 h 3.4298 l 5.6552,20.3829 c 0.234,0.8538 0.3794,1.7458 0.4429,2.6693 h 0.0948 c 0.0567,-0.6518 0.2527,-1.5438 0.5749,-2.6693 l 5.8707,-20.3829 h 2.9864 l 5.6371,20.5345 c 0.1959,0.7022 0.3413,1.5313 0.4429,2.48 h 0.0753 c 0.0449,-0.6393 0.215,-1.4932 0.4996,-2.5558 l 5.4278,-20.4587 z m 18.0101,15.6929 v 10.8829 h -3.3716 v -28.7904 h 7.9084 c 3.0776,0 5.4623,0.7471 7.1623,2.2481 1.6922,1.5009 2.5347,3.6113 2.5347,6.346 0,2.7276 -0.9379,4.9617 -2.8163,6.7029 -1.8845,1.7402 -4.4275,2.6105 -7.6201,2.6105 z m 0,-14.8571 v 11.8078 h 3.5365 c 2.3228,0 4.1053,-0.5347 5.3247,-1.5968 1.2271,-1.0627 1.8438,-2.5703 1.8438,-4.509 0,-3.8036 -2.2548,-5.702 -6.7503,-5.702 z m 30.0752,26.1829 c -3.7706,0 -6.7879,-1.24 -9.053,-3.7258 -2.265,-2.48 -3.4035,-5.7123 -3.4035,-9.6918 0,-4.2764 1.1576,-7.6861 3.467,-10.2296 2.3088,-2.543 5.4597,-3.8145 9.4324,-3.8145 3.6753,0 6.6297,1.2339 8.869,3.7011 2.2459,2.4728 3.3658,5.7062 3.3658,9.698 0,4.3331 -1.1513,7.7624 -3.4483,10.2863 -2.296,2.5177 -5.3711,3.7763 -9.2294,3.7763 z m 0.2212,-24.6464 c -2.7899,0 -5.0606,1.0054 -6.8003,3.0173 -1.7407,2.0181 -2.6131,4.6626 -2.6131,7.9326 0,3.2772 0.8477,5.9093 2.5492,7.9078 1.6958,1.9933 3.916,2.9926 6.643,2.9926 2.9158,0 5.2128,-0.9487 6.8957,-2.8534 1.683,-1.9036 2.5177,-4.5667 2.5177,-7.9893 0,-3.5113 -0.81,-6.2187 -2.4419,-8.1357 -1.6324,-1.9165 -3.8845,-2.8719 -6.7503,-2.8719 z m 34.1176,-1.6325 -15.5687,23.0208 h 15.1954 v 2.8152 h -19.8451 v -0.8724 l 15.4357,-22.8882 h -14.1957 v -2.8152 h 18.9784 z m 25.7282,25.836 h -3.8201 l -13.678,-21.1862 c -0.3475,-0.5316 -0.6321,-1.088 -0.8538,-1.6639 h -0.1078 c 0.0949,0.5692 0.1454,1.7845 0.1454,3.6505 v 19.1996 h -3.1116 v -26.5758 h 4.0356 l 13.3104,20.8505 c 0.5563,0.8611 0.9172,1.4551 1.0755,1.7778 h 0.0758 c -0.1263,-0.7656 -0.1903,-2.0681 -0.1903,-3.9093 v -18.719 h 3.1189 z m 27.538,0 h -3.4473 l -2.8152,-7.4515 h -11.2737 l -2.6513,7.4515 h -3.4659 l 10.1977,-26.5758 h 3.2261 z m -7.2876,-10.2482 -4.1691,-11.3242 c -0.1331,-0.3733 -0.2723,-0.9673 -0.4048,-1.7773 h -0.0758 c -0.1263,0.7523 -0.2655,1.3416 -0.4238,1.7773 l -4.1383,11.3242 z m 32.6239,10.2482 h -3.8206 l -13.6775,-21.1862 c -0.3475,-0.5316 -0.6321,-1.088 -0.8543,-1.6639 h -0.1073 c 0.0944,0.5692 0.1454,1.7845 0.1454,3.6505 v 19.1996 h -3.1122 v -26.5758 h 4.0357 l 13.3103,20.8505 c 0.5564,0.8611 0.9178,1.4551 1.0761,1.7778 h 0.0758 c -0.1268,-0.7656 -0.1903,-2.0681 -0.1903,-3.9093 v -18.719 h 3.1189 z m 10.077,0 h -3.1116 v -26.5758 h 3.1116 z m 26.4315,-10.7478 c 0,7.4582 -3.3659,11.1907 -10.1033,11.1907 -6.4461,0 -9.6722,-3.5865 -9.6722,-10.7669 v -16.2518 h 3.1122 v 16.0492 c 0,5.4463 2.3027,8.1734 6.8952,8.1734 4.4347,0 6.6559,-2.6317 6.6559,-7.895 v -16.3276 h 3.1122 z"/>
  </g>
</svg>
