<?xml version="1.0" encoding="UTF-8"?>
<!DOCTYPE svg PUBLIC "-//W3C//DTD SVG 1.1//EN" "http://www.w3.org/Graphics/SVG/1.1/DTD/svg11.dtd">
<!-- Creator: CorelDRAW 2019 (64-Bit Wersja próbna) -->
<svg xmlns="http://www.w3.org/2000/svg" xml:space="preserve" width="56.895mm" height="25.7386mm" version="1.1"
     style="shape-rendering:geometricPrecision; text-rendering:geometricPrecision; image-rendering:optimizeQuality; fill-rule:evenodd; clip-rule:evenodd"
     viewBox="0 0 5689.5 2573.86"
>
 <defs>
  <style type="text/css">
   <
   !
   [CDATA[
   .fil1 {
     fill: #FEFEFE
   }

   .fil0 {
     fill: #FEFEFE;
     fill-rule: nonzero
   }

   ]
   ]
   >
  </style>
 </defs>
  <g id="Warstwa_x0020_1">
  <metadata id="CorelCorpID_0Corel-Layer"/>
  <g id="_2963148579344">
   <path class="fil0" d="M1172.23 356.14c279.32,0 532.22,113.22 715.24,296.27 183.04,183.03 296.27,435.94 296.27,715.25 0,43.5 -2.75,86.36 -8.07,128.42l-40.45 0c5.54,-42.03 8.42,-84.89 8.42,-128.42 0,-268.24 -108.73,-511.11 -284.53,-686.89 -175.77,-175.79 -418.63,-284.53 -686.88,-284.53 -268.23,0 -511.09,108.74 -686.89,284.53 -175.78,175.78 -284.53,418.65 -284.53,686.89 0,43.53 2.88,86.39 8.43,128.42l-40.44 0c-5.33,-42.06 -8.08,-84.92 -8.08,-128.42 0,-279.31 113.22,-532.22 296.26,-715.25 183.03,-183.03 435.93,-296.27 715.25,-296.27zm926.19 1418.74c-50.92,115.63 -122.84,219.93 -210.95,308.03 -183.02,183.05 -435.92,296.26 -715.24,296.26 -279.32,0 -532.22,-113.23 -715.25,-296.26 -88.11,-88.1 -160.01,-192.4 -210.93,-308.03l44 0c48.38,104.61 114.8,199.17 195.29,279.67 175.8,175.79 418.66,284.53 686.89,284.53 268.25,0 511.11,-108.74 686.88,-284.53 80.5,-80.5 146.92,-175.06 195.29,-279.67l44.02 0z"/>
   <path class="fil1" d="M1130.09 1959.68c-93.51,-68.31 -179.79,-152.49 -145.93,-279.29 14.13,-47.68 50.29,-89.29 101.59,-129.89l-6.36 -3.5c-98.7,-54.52 -245.2,-144.52 -293.92,-202.77 -95.98,-124.03 -14.66,-300.32 109.12,-381.29 52.67,7.84 105.2,13.51 157.65,17.01 17.96,107.94 -134.43,94.88 -175.01,139.09 -123.49,132.67 80.66,243.12 260.16,353.78l-2.46 -142.2 0.03 -29.85 -5.91 -271.69c-0.94,-51.47 72.83,-53.3 77.56,-2.29l-7.37 275.81 -0.86 28.02 -2.24 144.84c180.55,-111.58 388.86,-222.71 264.41,-356.42 -40.41,-44.03 -191.76,-31.25 -175.24,-137.8 53.86,-3.04 107.56,-8.41 161.16,-16.14 121.92,81.92 201,256.2 105.84,379.13 -48.72,58.25 -195.21,148.25 -293.94,202.77l-6.37 3.47c51.33,40.63 87.47,82.24 101.6,129.92 33.87,126.8 -52.41,210.98 -145.92,279.29 3.83,3.64 7.59,7.25 11.26,10.87 38.68,46.44 63.92,106.69 75.39,171.62 11.22,56.65 -27.33,65.71 -43.79,-0.23 -12.04,-44.36 -34.67,-84.98 -62.67,-121.53l0.1 209.87c-2.43,21.54 -38.1,21.58 -40.29,0l-0.07 -209.15c-26.7,35.58 -48.78,78.02 -60.37,120.86 -10.5,59.18 -54.05,65.47 -43.7,-0.17 11.5,-64.77 36.68,-124.93 75.3,-171.27 3.67,-3.62 7.43,-7.23 11.25,-10.87zm-309.59 -1112.88l0.19 -0.06 0.62 -0.15 0.79 -0.2 0.81 -0.2 0.12 -0.04 0.69 -0.17 0.81 -0.21 0.81 -0.21 0.03 -0.02 1.58 -0.38 0.78 -0.21 0.05 0 0.8 -0.21 0.83 -0.21 0.69 -0.17 0.12 -0.03 0.82 -0.21 0.82 -0.21 0.61 -0.16 0.22 -0.05 0.81 -0.21 0.82 -0.2 0.52 -0.14 0.31 -0.07 0.82 -0.21 0.83 -0.22 0.44 -0.12 0.38 -0.09 0.84 -0.2 1.16 -0.32 0.49 -0.12 0.81 -0.2 0.83 -0.23 0.27 -0.08 0.55 -0.13 0.83 -0.23 0.82 -0.21 0.2 -0.06 0.64 -0.16 0.83 -0.22 0.82 -0.23 0.1 -0.03 0.72 -0.19 0.82 -0.23 0.83 -0.23 0.02 -0.01 0.8 -0.21 0.83 -0.24 0.74 -0.21 0.06 -0.01 0.83 -0.24 0.82 -0.24 0.66 -0.2 0.15 -0.03 0.83 -0.24 0.8 -0.25 0.59 -0.16 0.24 -0.08 0.8 -0.24 0.82 -0.25 0.49 -0.16 0.31 -0.09 0.81 -0.25 0.81 -0.25 0.42 -0.14 0.39 -0.12 0.79 -0.26 0.81 -0.26 0.33 -0.11 0.46 -0.16 0.8 -0.26 0.81 -0.27 0.24 -0.09 0.54 -0.17 0.79 -0.29 0.79 -0.27 0.17 -0.06 0.61 -0.23 0.8 -0.28 0.78 -0.28 0.07 -0.03 0.7 -0.25 0.77 -0.29 0.78 -0.3 0.84 0.79 0.85 0.76 0.85 0.79 0.87 0.74 0.88 0.75 0.89 0.75 0.88 0.72 0.02 0 0.9 0.72 0.91 0.7 0.91 0.7 0.93 0.7 0.93 0.67 0.01 0 0.93 0.66 0.02 0 0.94 0.66 0.96 0.64 0.98 0.63 0.97 0.63 0.97 0.62 0.01 0 1 0.59 0.98 0.59 0.02 0 0.99 0.58 0.01 0 1.01 0.55 1.01 0.56 0.02 0 1.02 0.55 1.03 0.52 1.03 0.53 0.02 0 1.03 0.51 0.01 0 1.06 0.49 1.06 0.48 1.06 0.47 1.08 0.46 1.08 0.45 1.09 0.44 1.09 0.41 1.1 0.42 1.11 0.4 1.1 0.38 0.02 0 1.11 0.38 1.12 0.34 1.12 0.36 0.02 0 1.12 0.33 0.01 0 1.13 0.32 0.01 0 1.14 0.31 1.16 0.28 1.15 0.29 1.17 0.26 1.17 0.25 1.17 0.24 1.18 0.22 1.18 0.21 1.18 0.2 1.2 0.19 1.18 0.17 0.02 0 1.19 0.15 1.2 0.15 1.22 0.12 1.21 0.11 1.22 0.09 1.22 0.08 1.23 0.07 1.23 0.05 1.23 0.04 1.24 0.02 1.24 0.01c55.03,0 99.61,-44.58 99.61,-99.59l-0.02 -1.31 -0.01 -1.3 -0.05 -1.31 -0.06 -1.3 -0.07 -1.31 -0.09 -1.29 -0.11 -1.28 -0.13 -1.29 -0.13 -1.27 -0.17 -1.28 -0.16 -1.27 -0.2 -1.27 -0.21 -1.26 -0.21 -1.24 -0.24 -1.24 0 -0.02 -0.25 -1.23 0 -0.01 -0.27 -1.23 -0.27 -1.23 -0.3 -1.23 -0.32 -1.21 0 -0.01 -0.32 -1.2 0 -0.02 -0.35 -1.2 -0.36 -1.2 -0.36 -1.19 -0.39 -1.18 -0.4 -1.19 -0.42 -1.17 0 -0.01 -0.42 -1.16 0 -0.01 -0.45 -1.15 -0.45 -1.16 -0.48 -1.14 0 -0.01 -0.48 -1.13 0 -0.01 -0.49 -1.12 -0.53 -1.12 -0.52 -1.13 -0.54 -1.11 -0.56 -1.09 0 -0.01 -0.55 -1.08 0 -0.02 -0.58 -1.08 -0.59 -1.07 -0.61 -1.07 0 -0.01 -0.62 -1.05 0 -0.02 -0.62 -1.05 -0.65 -1.02 0 -0.02 -0.66 -1.04 -0.65 -1.02 0 -0.01 -0.69 -1 0 -0.02 -0.69 -1 -0.71 -0.99 0 -0.02 -0.7 -0.98 -0.74 -0.98 0 -0.01 -0.73 -0.96 0 -0.02 -0.75 -0.95 -0.76 -0.96 -0.78 -0.95 -0.78 -0.92 -0.81 -0.93 -0.79 -0.91 -0.83 -0.92 -0.82 -0.9 -0.85 -0.88 -0.84 -0.87 -0.87 -0.87 -0.87 -0.85 0.27 -0.41 0.27 -0.4 0.27 -0.42 0.27 -0.41 0.27 -0.4 0.28 -0.4 0.27 -0.43 0.29 -0.4 0.27 -0.41 0.28 -0.41 0.28 -0.42 0.29 -0.4 0.29 -0.42 0.28 -0.41 0.29 -0.42 0.28 -0.41 0.3 -0.43 0.29 -0.4 0 -0.02 0.3 -0.4 0.29 -0.42 0.3 -0.42 0.29 -0.42 0.3 -0.42 0.31 -0.43 0.3 -0.42 0.3 -0.42 0.31 -0.42 0.31 -0.43 0.31 -0.43 0.31 -0.43 0.32 -0.42 0.3 -0.43 0.33 -0.42 0 -0.02 0.31 -0.41 0.32 -0.44 0.32 -0.44 0.32 -0.43 0.33 -0.43 0.33 -0.44 0.31 -0.43 0.35 -0.43 0.33 -0.44 0 -0.02 0.33 -0.43 0.33 -0.43 0 -0.02 0.34 -0.43 0.33 -0.44 0 -0.01 0.35 -0.44 0.34 -0.44 0.34 -0.46 0.35 -0.43 0 -0.01 0.34 -0.44 0 -0.01 0.36 -0.45 0.35 -0.45 0.35 -0.45 0.37 -0.45 0 -0.01 0.34 -0.46 0.36 -0.44 0 -0.02 0.36 -0.45 0.37 -0.45 0 -0.01 0.37 -0.45 0 -0.02 0.37 -0.44 0 -0.02 0.35 -0.45 0 -0.02 0.38 -0.45 0 -0.01 0.38 -0.45 0 -0.01 3.02 -3.57 0 -0.01 3.18 -3.45 0 -0.01 3.3 -3.34 0 -0.02 3.45 -3.22 0 -0.01 3.6 -3.1 0 -0.01 3.71 -3 0 -0.02 3.83 -2.87 0 -0.02 3.95 -2.75 0 -0.02 4.08 -2.65 0 -0.02 4.18 -2.52 4.28 -2.43 0 -0.02 4.39 -2.29 0 -0.01 4.47 -2.19 0 -0.01 4.56 -2.07 0 -0.01 4.66 -1.97 0 -0.01 4.73 -1.85 0 -0.01 4.81 -1.72 0 -0.02 4.86 -1.61 4.94 -1.52 5.01 -1.39 0 -0.01 5.06 -1.28 5.1 -1.17 0 -0.01 5.16 -1.03 0 -0.02 5.19 -0.93 0 -0.01 5.23 -0.83 5.27 -0.7 0 -0.01 5.29 -0.59 0 -0.01 5.3 -0.49 5.33 -0.37 5.33 -0.25 5.35 -0.15 5.34 -0.03 5.36 0.08 0 0.01 5.34 0.19 5.32 0.3 5.31 0.42 0 0.02 5.29 0.52 5.25 0.64 0 0.02 5.24 0.75 5.17 0.88 5.16 0.99 5.1 1.1 5.05 1.21 4.99 1.33 4.94 1.43 4.87 1.55 4.79 1.66 0 0.02 4.71 1.77 4.65 1.88 4.55 2.01 4.46 2.11 4.37 2.22 0 0.01 4.27 2.32 0 0.02 4.17 2.44 4.06 2.56 3.95 2.67 0 0.01 3.82 2.77 0 0.02 3.7 2.89 3.56 3.01 3.44 3.11 0 0.02 3.29 3.22 0 0.01c1.06,1.09 2.14,2.19 3.16,3.33l0 0.01 3.01 3.44 0 0.02 2.84 3.55 0 0.01 0.56 0.58 0 0.01 0.55 0.55 0 0.02 0.56 0.57 0 0.01 0.53 0.56 0 0.01 0.53 0.55 0.02 0 0.52 0.56 0 0.02 0.52 0.53 0 0.02 0.51 0.55 0.02 0 0.5 0.54 0 0.02 0.5 0.53 0.01 0 0.5 0.55 0 0.01 0.49 0.53 0.02 0.01 0.48 0.52 0.48 0.54 0.01 0 0.47 0.53 0.01 0 0.46 0.52 0.02 0 0.47 0.53 0.46 0.52 0.45 0.51 0.01 0 0.45 0.51 0.45 0.51 0.45 0.5 0.44 0.52 0.43 0.49 0.02 0 0.41 0.49 0.42 0.5 0.02 0 0.4 0.49 0.02 0 0.82 0.98 0.4 0.48 0.41 0.47 0.39 0.48 0.01 0 0.39 0.47 0 0.01 0.39 0.46 0.4 0.47 0.37 0.47 0 0.01 0.37 0.45 0.38 0.46 0.37 0.46 0 0.01 0.36 0.45 0.36 0.44 0 0.02 0.36 0.44 0 0.01 0.7 0.88 0 0.02 0.35 0.42 0 0.01 0.32 0.44 0 0.01 0.35 0.42 0 0.02 0.33 0.43 0.33 0.44 0 0.01 0.33 0.42 0 0.02 0.31 0.41 0.34 0.42 0 0.02 0.31 0.42 0 0.01 0.3 0.41 0 0.01 0.31 0.42 0 0.02 0.3 0.4 0 0.02 0.3 0.4 0 0.02 0.3 0.4 0 0.01 0.3 0.41 0 0.01 0.28 0.41 0 0.02 0.3 0.38 0 0.02 0.29 0.4 0 0.01 0.27 0.41 0 0.02 0.28 0.39 0 0.01 -0.38 0.42 -0.38 0.4 0 0.02 -0.75 0.84 -0.46 0.54 -0.27 0.3 0 0.01 -0.74 0.85 0 0.02 -0.53 0.63 -0.19 0.23 0 0.01 -0.72 0.85 0 0.01 -0.61 0.77 -0.09 0.12 0 0.02 -0.69 0.86 0 0.02 -0.67 0.88 -0.01 0.02 0 0.01 -0.67 0.89 0 0.01 -0.67 0.91 0 0.02 -0.06 0.07 -0.59 0.85 0 0.01 -0.64 0.91 0 0.02 -0.13 0.18 -0.5 0.74 0 0.02 -0.63 0.93 0 0.02 -0.19 0.29 -0.4 0.65 0 0.01 -0.62 0.95 0 0.01 -0.26 0.42 -0.32 0.54 0 0.02 -0.57 0.97 -0.33 0.56 -0.24 0.41 0 0.02 -0.57 0.99 -0.36 0.67 -0.18 0.31 0 0.02 -0.54 1 -0.42 0.8 -0.1 0.21 0 0.01 -0.51 1 0 0.02 -0.45 0.93 -0.05 0.09 -0.49 1.03 -0.48 1.03 0 0.02 -0.02 0.01 -0.45 1.02 0 0.02 -0.44 1.03 0 0.02 -0.06 0.13 -0.39 0.91 -0.42 1.07 -0.12 0.26 -0.3 0.8 0 0.02 -0.4 1.06 0 0.01 -0.41 1.06 0 0.02 -0.38 1.08 -0.37 1.1 -0.36 1.1 -0.21 0.66 -0.13 0.43 0 0.02 -0.33 1.09 0 0.02 -0.24 0.79 -0.09 0.32 -0.3 1.12 -0.3 1.12 -0.29 1.13 0 0.01 -0.25 1.08 0 0.05 0 0.01 -0.27 1.14 -0.24 1.13 -0.01 0.09 -0.21 1.07 -0.23 1.15 -0.03 0.23 -0.16 0.94 -0.2 1.15 0 0.02 -0.04 0.34 -0.12 0.83 -0.17 1.17 -0.15 1.18 -0.13 1.18 -0.12 1.18 -0.1 1.19 -0.11 1.2 -0.07 1.19 -0.05 0.93 -0.01 0.27 -0.06 1.21 -0.03 1.22 -0.03 1.21 0 1.21c0,55.01 44.58,99.59 99.6,99.59l1.23 0 1.23 -0.03 0.11 0 0.18 0 0.94 -0.03 1.23 -0.06 0.2 -0.01 1.01 -0.05 1.21 -0.09 1.21 -0.09 1.2 -0.1 1.2 -0.13 1.2 -0.14 1.19 -0.15 1.19 -0.16 0.64 -0.11 0.54 -0.07 1.19 -0.2 0.73 -0.14 0.45 -0.07 1.16 -0.22 1.16 -0.24 1.17 -0.24 1.15 -0.27 1.15 -0.27 1.02 -0.26 0.12 -0.03 1.14 -0.31 1.14 -0.31 1.12 -0.32 0 -0.01 1.12 -0.33 0.09 -0.04 1.04 -0.32 1.11 -0.36 1.1 -0.39 1.1 -0.39 1.09 -0.41 1.09 -0.41 1.08 -0.42 1.08 -0.46 1.06 -0.44 1.06 -0.46 1.05 -0.49 1.05 -0.48 0 -0.01 0.65 -0.3 0.4 -0.19 1.03 -0.52 1.04 -0.52 1.01 -0.53 0.82 -0.44 0.2 -0.11 1.01 -0.55 0 -0.01 0.88 -0.5 0.12 -0.06 0 -0.01 0.99 -0.58 0 -0.01 0.96 -0.57 0.03 -0.01 1.95 -1.22 0.05 -0.04 0.92 -0.58 0.95 -0.63 0 -0.02 0.14 -0.09 0.81 -0.53 0 -0.02 0.94 -0.65 0 -0.01 0.23 -0.15 0.7 -0.51 0.93 -0.68 0.91 -0.68 0.9 -0.69 0 -0.02 0.39 -0.28 0.53 -0.42 0.88 -0.72 0.45 -0.36 0.44 -0.36 0 -0.01 0.86 -0.72 0 -0.02 0.53 -0.45 0.34 -0.28 0 -0.02 0.85 -0.74 0 -0.02 0.59 -0.51 0.27 -0.24 0 -0.01 0.84 -0.77 0 -0.01 2.74 1.03 0.69 0.25 0.68 0.25 0.17 0.07 0.54 0.18 0.69 0.24 2.11 0.72 0.7 0.24 0.33 0.12 0.39 0.12 0.71 0.24 2.15 0.68 0.72 0.23 0.49 0.17 0.23 0.06 0.72 0.22 0.73 0.23 0.58 0.17 0.14 0.03 0.73 0.23 0.73 0.22 0.67 0.2 0.06 0.01 0.74 0.21 0.72 0.23 0.74 0.21 0.02 0.01 0.71 0.2 0.74 0.2 0.73 0.21 0.1 0.03 0.64 0.18 0.74 0.22 0.74 0.19 0.18 0.06 0.57 0.15 0.73 0.21 0.75 0.19 0.25 0.08 0.48 0.13 0.75 0.2 0.75 0.19 0.35 0.11 0.38 0.1 0.75 0.2 0.75 0.19 0.42 0.12 0.32 0.08 0.75 0.19 0.74 0.21 0.51 0.13 0.23 0.06 0.75 0.2 0.75 0.2 0.59 0.16 0.15 0.03 0.74 0.2 2.23 0.56 0.75 0.2 0.73 0.19 0.02 0.02 0.73 0.18 0.73 0.19 0.75 0.2 0.09 0.03 0.65 0.16 2.22 0.57 0.73 0.2c33.05,8.69 62.72,17.98 63.46,44.16l1 0.23c-71.23,16.22 -142.67,28.24 -214.36,36.1 -3.84,0.3 -7.61,0.63 -11.26,1.01 -134.02,13.61 -258.46,13.16 -397.82,-0.9l-0.88 -0.09c-71.16,-7.67 -142.57,-19.31 -214.17,-34.86l3.18 -1 -2.07 -0.29c0,-25.91 27.54,-35.11 59.95,-43.5zm319.37 768.16c-70.47,46.05 -92.39,82.36 -92.14,158.42 0.16,43.35 46.16,86.48 97.15,130.81l-5.01 -289.23zm54.18 -2.5c73.58,47.27 96.24,83.54 95.98,160.92 -0.15,44.28 -48.12,88.29 -100.47,133.66l4.49 -294.58z"/>
   <path class="fil1" d="M940.89 684.54l1.48 0.03c40.75,0.79 73.54,34.04 73.54,74.98 0,40.93 -32.79,74.2 -73.54,74.99l-1.48 0.03 -0.45 0 -1.48 -0.03c-11.36,-0.22 -22.09,-2.95 -31.68,-7.68l-0.12 -0.06 -0.14 -0.08c-4.65,-2.2 -9.62,-5.26 -14.79,-9.7l-0.1 -0.09c-4.93,-4.16 -9.33,-8.93 -13.04,-14.2 -15.14,-20.22 -30.75,-55.32 -43.49,-117.94l98.88 0c1.48,-0.12 2.98,-0.19 4.48,-0.22l1.48 -0.03 0.45 0z"/>
   <path class="fil1" d="M1418.81 684.54c2.07,0 4.1,0.1 6.11,0.25l98.73 0c-12.78,62.8 -28.45,97.92 -43.63,118.12 -3.72,5.24 -8.1,9.99 -13.02,14.11l-0.48 0.42 -0.71 0.59 -0.69 0.54c-4.14,3.35 -8.16,5.83 -11.97,7.7l-0.19 0.09 -0.89 0.44c-10.02,4.95 -21.31,7.77 -33.26,7.77 -41.44,0 -75.01,-33.59 -75.01,-75.02 0,-41.44 33.57,-75.01 75.01,-75.01z"/>
   <path class="fil1" d="M746.55 1708.27c0,2.52 -0.13,4.64 -0.42,6.39 -0.27,1.75 -0.64,3.17 -1.15,4.19 -0.5,1 -1.05,1.78 -1.69,2.2 -0.61,0.47 -1.34,0.69 -2.18,0.69l-96.16 0c-0.73,0 -1.43,-0.22 -2.02,-0.69 -0.64,-0.42 -1.2,-1.2 -1.71,-2.2 -0.5,-1.02 -0.87,-2.44 -1.15,-4.19 -0.27,-1.75 -0.42,-3.87 -0.42,-6.39 0,-2.63 0.15,-4.78 0.37,-6.54 0.23,-1.75 0.56,-3.17 1.07,-4.23 0.49,-1.1 1.05,-1.88 1.69,-2.39 0.6,-0.46 1.33,-0.73 2.17,-0.73l32.47 0 0 -113.47 -28.07 15.5c-2.06,1.01 -3.71,1.62 -5.04,1.84 -1.29,0.22 -2.31,-0.05 -3.09,-0.83 -0.77,-0.74 -1.29,-2.08 -1.57,-3.95 -0.22,-1.88 -0.36,-4.56 -0.36,-7.97 0,-2.15 0.05,-3.9 0.14,-5.33 0.04,-1.38 0.28,-2.58 0.64,-3.54 0.38,-1.01 0.87,-1.79 1.46,-2.43 0.65,-0.64 1.53,-1.29 2.58,-2.02l37.49 -24.25c0.42,-0.38 0.97,-0.65 1.66,-0.87 0.69,-0.24 1.56,-0.42 2.62,-0.55 1.11,-0.14 2.48,-0.24 4.28,-0.29 1.74,-0.04 4,-0.04 6.8,-0.04 3.4,0 6.17,0.04 8.28,0.19 2.12,0.14 3.69,0.36 4.78,0.69 1.06,0.27 1.8,0.74 2.17,1.24 0.32,0.54 0.5,1.25 0.5,2.02l0 144.06 28.42 0c0.84,0 1.57,0.27 2.27,0.73 0.64,0.51 1.24,1.29 1.75,2.39 0.49,1.06 0.82,2.48 1.05,4.23 0.24,1.76 0.37,3.91 0.37,6.54zm141.89 -81.64c0,7.08 -0.38,14.43 -1.11,22.03 -0.69,7.59 -2.07,14.99 -4.1,22.3 -2.01,7.28 -4.83,14.16 -8.36,20.76 -3.54,6.52 -8.15,12.28 -13.75,17.14 -5.62,4.93 -12.44,8.79 -20.48,11.69 -8.03,2.86 -17.52,4.28 -28.51,4.28 -3.86,0 -7.68,-0.24 -11.5,-0.78 -3.82,-0.55 -7.31,-1.25 -10.44,-2.04 -3.17,-0.83 -5.84,-1.64 -8,-2.58 -2.21,-0.86 -3.81,-1.78 -4.79,-2.75 -1,-0.91 -1.75,-2.29 -2.15,-4.09 -0.47,-1.8 -0.7,-4.32 -0.7,-7.55 0,-2.97 0.05,-5.37 0.18,-7.17 0.14,-1.79 0.43,-3.17 0.83,-4.13 0.41,-1.02 0.88,-1.67 1.48,-1.98 0.6,-0.33 1.29,-0.46 2.11,-0.46 1.07,0 2.58,0.31 4.55,0.91 1.98,0.64 4.38,1.38 7.22,2.17 2.8,0.82 6.02,1.51 9.62,2.16 3.64,0.64 7.59,0.96 12.01,0.96 7.53,0 13.93,-1.38 19.12,-4.05 5.2,-2.71 9.44,-6.35 12.7,-10.94 3.22,-4.56 5.6,-9.85 7.13,-15.87 1.51,-6.03 2.4,-12.37 2.58,-19 -4.15,2.57 -9.15,4.88 -14.99,6.81 -5.85,1.93 -12.52,2.89 -20.05,2.89 -9.26,0 -17.13,-1.24 -23.61,-3.62 -6.48,-2.44 -11.73,-5.93 -15.77,-10.54 -4.06,-4.6 -6.99,-10.16 -8.83,-16.68 -1.84,-6.6 -2.76,-14 -2.76,-22.28 0,-8.68 1.33,-16.69 3.91,-24.05 2.62,-7.31 6.48,-13.66 11.59,-18.99 5.15,-5.34 11.5,-9.48 19.13,-12.47 7.63,-2.94 16.52,-4.42 26.53,-4.42 8.11,0 15.19,0.93 21.25,2.81 6.08,1.89 11.28,4.6 15.64,8.09 4.33,3.51 8.01,7.73 10.9,12.75 2.91,4.97 5.2,10.53 6.86,16.65 1.71,6.07 2.85,12.68 3.54,19.77 0.64,7.13 1.02,14.54 1.02,22.27zm-35.19 -4.88c0,-9.62 -0.55,-17.66 -1.62,-24.1 -1.1,-6.49 -2.7,-11.64 -4.86,-15.5 -2.17,-3.86 -4.84,-6.62 -8.06,-8.24 -3.26,-1.6 -7.04,-2.44 -11.37,-2.44 -4.17,0 -7.81,0.8 -10.88,2.27 -3.04,1.46 -5.58,3.53 -7.6,6.25 -2.01,2.72 -3.54,5.89 -4.55,9.56 -0.97,3.68 -1.47,7.72 -1.47,12.14 0,4.75 0.41,8.93 1.29,12.61 0.87,3.63 2.2,6.62 4.05,9.02 1.84,2.38 4.22,4.13 7.21,5.33 2.95,1.15 6.54,1.75 10.77,1.75 5.2,0 10.11,-0.79 14.75,-2.39 4.61,-1.56 8.75,-3.65 12.34,-6.26zm702.31 85.6c0,2.58 -0.18,4.83 -0.36,6.66 -0.18,1.8 -0.6,3.35 -1.02,4.51 -0.39,1.12 -1.05,2 -1.75,2.49 -0.68,0.46 -1.57,0.73 -2.38,0.73l-100.27 0c-1.91,0 -3.7,-0.22 -5.1,-0.56 -1.44,-0.34 -2.68,-1.04 -3.55,-2.06 -0.87,-1 -1.55,-2.56 -1.93,-4.51 -0.38,-1.94 -0.6,-4.55 -0.6,-7.68 0,-2.99 0.19,-5.54 0.42,-7.64 0.21,-2.08 0.76,-4 1.47,-5.64 0.69,-1.65 1.66,-3.28 2.76,-4.84 1.11,-1.53 2.59,-3.29 4.36,-5.2l30.18 -32.33c5.94,-6.38 10.93,-12.04 14.58,-17.21 3.64,-5.12 6.58,-9.9 8.6,-14.11 2.05,-4.23 3.54,-8.25 4.27,-11.83 0.73,-3.53 1.11,-6.99 1.11,-10.21 0,-2.98 -0.48,-5.84 -1.38,-8.42 -0.91,-2.65 -2.38,-4.98 -4.18,-6.93 -1.81,-1.95 -4.18,-3.55 -6.95,-4.66 -2.81,-1.11 -6.08,-1.69 -9.84,-1.69 -5.3,0 -10.01,0.72 -14.08,2.02 -4.07,1.3 -7.71,2.89 -10.76,4.51 -3.1,1.63 -5.74,3.22 -7.77,4.6 -2.04,1.36 -3.69,2.06 -4.82,2.06 -0.85,0 -1.56,-0.3 -2.14,-0.82 -0.5,-0.48 -1.05,-1.47 -1.37,-2.66 -0.32,-1.23 -0.73,-2.99 -0.91,-5.07 -0.17,-2.08 -0.33,-4.69 -0.33,-7.73 0,-2.06 0.15,-3.84 0.24,-5.19 0.09,-1.4 0.35,-2.64 0.59,-3.64 0.26,-1 0.63,-1.97 1.05,-2.71 0.44,-0.75 1.26,-1.74 2.35,-2.76 1.11,-1.05 3.24,-2.46 6.2,-4.09 3.03,-1.65 6.73,-3.32 11.15,-4.88 4.42,-1.56 9.27,-2.91 14.52,-3.96 5.3,-1.05 10.86,-1.61 16.61,-1.61 9.06,0 17,1.14 23.78,3.41 6.73,2.27 12.43,5.5 16.88,9.58 4.49,4.08 7.9,8.98 10.07,14.57 2.18,5.58 3.26,11.63 3.26,18.12 0,5.66 -0.54,11.24 -1.6,16.7 -1.05,5.43 -3.33,11.42 -6.71,17.69 -3.4,6.34 -8.28,13.35 -14.45,21.03 -6.17,7.65 -14.65,16.48 -24.65,26.77l-20.33 20.89 68.72 0c0.86,0 1.73,0.3 2.48,0.82 0.75,0.53 1.45,1.36 1.98,2.49 0.48,1.06 0.94,2.6 1.2,4.42 0.24,1.79 0.4,4.04 0.4,6.57zm142.53 -43.84c0,8.84 -1.38,17 -4.05,24.47 -2.64,7.46 -6.6,13.99 -11.81,19.41 -5.22,5.43 -11.68,9.73 -19.28,12.8 -7.62,3.07 -16.46,4.64 -26.4,4.64 -8.09,0 -15.19,-0.98 -21.15,-2.77 -6,-1.83 -11.27,-4.51 -15.65,-7.95 -4.36,-3.45 -8.05,-7.66 -10.79,-12.56 -2.78,-4.92 -5.05,-10.56 -6.68,-16.74 -1.64,-6.19 -2.82,-12.95 -3.41,-20.19 -0.59,-7.25 -0.95,-15 -0.95,-23.18 0,-6.86 0.34,-14.02 1,-21.43 0.66,-7.43 2,-14.78 3.91,-21.94 1.92,-7.22 4.69,-14.11 8.15,-20.57 3.47,-6.49 8.09,-12.25 13.56,-17.11 5.5,-4.87 12.21,-8.84 20.06,-11.68 7.82,-2.85 17.19,-4.27 27.96,-4.27 3.4,0 6.87,0.24 10.31,0.6 3.39,0.36 6.7,0.91 9.65,1.51 2.92,0.58 5.52,1.38 7.55,2.16 2.05,0.78 3.44,1.58 4.09,2.13 0.63,0.53 1.22,1.24 1.56,1.93 0.35,0.71 0.68,1.52 0.88,2.33 0.21,0.84 0.39,1.97 0.45,3.18 0.08,1.25 0.15,2.8 0.15,4.6 0,2.75 -0.07,5.13 -0.19,6.94 -0.11,1.81 -0.41,3.28 -0.74,4.33 -0.33,0.99 -0.91,1.75 -1.51,2.2 -0.58,0.43 -1.38,0.69 -2.26,0.69 -1.1,0 -2.49,-0.34 -4.18,-0.91 -1.69,-0.57 -3.77,-1.2 -6.22,-1.93 -2.44,-0.74 -5.28,-1.34 -8.55,-1.89 -3.26,-0.55 -7.08,-0.84 -11.41,-0.84 -7.26,0 -13.45,1.41 -18.44,4.06 -4.98,2.67 -9.15,6.38 -12.28,10.99 -3.11,4.61 -5.46,10.01 -6.85,16.1 -1.4,6.08 -2.21,12.59 -2.3,19.41 1.98,-1.24 4.23,-2.53 6.8,-3.78 2.58,-1.24 5.36,-2.34 8.37,-3.21 2.97,-0.87 6.3,-1.72 9.76,-2.26 3.47,-0.55 7.21,-0.87 11.18,-0.87 8.82,0 16.4,1.23 22.67,3.63 6.25,2.39 11.43,5.92 15.4,10.4 3.98,4.47 6.98,9.96 8.83,16.28 1.86,6.36 2.81,13.48 2.81,21.29zm-34.72 3.4c0,-4.6 -0.46,-8.6 -1.24,-12.1 -0.76,-3.4 -2.11,-6.33 -3.91,-8.73 -1.8,-2.39 -4.22,-4.2 -7.13,-5.37 -2.96,-1.2 -6.57,-1.84 -10.76,-1.84 -2.54,0 -5.05,0.25 -7.45,0.68 -2.37,0.44 -4.8,1.11 -7.13,1.89 -2.3,0.78 -4.6,1.78 -6.72,2.89 -2.13,1.09 -4.18,2.31 -6.07,3.6 0,9.61 0.59,17.64 1.61,24 1.03,6.41 2.69,11.58 4.79,15.32 2.08,3.73 4.74,6.46 7.95,8 3.16,1.54 6.91,2.4 11.13,2.4 4.08,0 7.74,-0.82 10.81,-2.31 3.12,-1.5 5.71,-3.71 7.77,-6.48 2.04,-2.76 3.64,-6.07 4.69,-9.76 1.05,-3.71 1.66,-7.82 1.66,-12.19z"/>
   <path class="fil1" d="M1152.76 1297.55c2.5,-1.4 5.55,-2.98 8.05,-4.38 -4.18,-15.05 -12.84,-27.31 -25.02,-37.37 -8.46,-5.96 -7.48,-22.31 -15.6,-33.47 -28.67,-47.74 -82.67,-61.99 -165.07,-38.67 24.66,45.72 54.58,87.09 119.25,99.76 44.41,9.42 41.38,-26.32 58.17,-14.62 8.32,5.19 15.44,12.38 20.22,28.75z"/>
   <path class="fil1" d="M1181.95 1297.55c-2.49,-1.4 -5.55,-2.98 -8.04,-4.38 4.17,-15.05 12.83,-27.31 25.02,-37.37 8.45,-5.96 7.47,-22.31 15.59,-33.47 28.68,-47.74 82.68,-61.99 165.07,-38.67 -24.66,45.72 -54.58,87.09 -119.25,99.76 -44.41,9.42 -41.37,-26.32 -58.16,-14.62 -8.33,5.19 -15.45,12.38 -20.23,28.75z"/>
   <path class="fil0" d="M2763.25 796.25c0,94.33 -42.57,141.54 -127.78,141.54 -81.55,0 -122.34,-45.37 -122.34,-136.19l0 -205.56 39.36 0 0 202.99c0,68.9 29.13,103.39 87.22,103.39 56.09,0 84.17,-33.28 84.17,-99.86l0 -206.52 39.37 0 0 200.21zm330.72 135.94l-44.61 0 -159.7 -247.37c-4.05,-6.21 -7.37,-12.7 -9.97,-19.43l-1.25 0c1.1,6.65 1.7,20.83 1.7,42.62l0 224.18 -36.34 0 0 -310.3 47.12 0 155.41 243.45c6.49,10.05 10.71,16.99 12.56,20.76l0.88 0c-1.47,-8.94 -2.22,-24.15 -2.22,-45.65l0 -218.56 36.42 0 0 310.3zm117.66 0l-36.34 0 0 -310.3 36.34 0 0 310.3zm449.46 -310.3l-87.61 310.3 -42.61 0 -63.89 -226.76c-2.73,-9.68 -4.36,-20.24 -4.96,-31.61l-0.88 0c-0.81,10.63 -2.74,21.04 -5.61,31.16l-64.27 227.21 -42.17 0 -90.93 -310.3 40.04 0 66.03 237.99c2.74,9.97 4.43,20.38 5.18,31.16l1.1 0c0.67,-7.61 2.95,-18.02 6.72,-31.16l68.54 -237.99 34.87 0 65.82 239.76c2.28,8.2 3.98,17.88 5.17,28.95l0.88 0c0.52,-7.46 2.51,-17.43 5.83,-29.84l63.37 -238.87 39.38 0zm210.51 310.3l-164.42 0 0 -310.3 157.55 0 0 32.87 -121.21 0 0 103.27 112.12 0 0 32.64 -112.12 0 0 108.65 128.08 0 0 32.87zm282.22 0l-43.28 0 -52 -87.01c-4.73,-8.05 -9.37,-14.92 -13.81,-20.68 -4.5,-5.7 -9.09,-10.34 -13.73,-13.89 -4.74,-3.62 -9.76,-6.28 -15.14,-7.91 -5.4,-1.7 -11.53,-2.51 -18.33,-2.51l-29.84 0 0 132 -36.33 0 0 -310.3 92.62 0c13.51,0 26.07,1.7 37.51,5.1 11.46,3.39 21.43,8.5 29.86,15.43 8.49,6.95 15.05,15.58 19.79,25.85 4.79,10.34 7.17,22.38 7.17,36.27 0,10.78 -1.64,20.76 -4.89,29.77 -3.24,9.01 -7.83,17.06 -13.81,24.08 -5.97,7.09 -13.22,13.14 -21.64,18.1 -8.49,4.95 -17.95,8.86 -28.51,11.59l0 0.89c5.25,2.29 9.75,4.87 13.59,7.83 3.77,3.03 7.46,6.5 10.86,10.56 3.47,3.98 6.94,8.57 10.33,13.74 3.41,5.1 7.17,11.08 11.31,17.79l58.27 93.3zm-186.13 -277.43l0 112.57 49.35 0c9.07,0 17.5,-1.41 25.18,-4.13 7.76,-2.75 14.4,-6.66 20.02,-11.83 5.61,-5.1 10.04,-11.37 13.22,-18.84 3.17,-7.38 4.73,-15.73 4.73,-24.96 0,-16.61 -5.32,-29.55 -16.1,-38.85 -10.72,-9.31 -26.3,-13.96 -46.61,-13.96l-49.79 0zm214.28 264.87l0 -42.84c4.87,4.35 10.71,8.2 17.59,11.67 6.86,3.48 14.1,6.43 21.63,8.79 7.61,2.37 15.22,4.21 22.83,5.54 7.68,1.26 14.78,1.92 21.2,1.92 22.38,0 39.07,-4.14 50.15,-12.48 11,-8.28 16.54,-20.16 16.54,-35.75 0,-8.42 -1.84,-15.66 -5.54,-21.86 -3.69,-6.21 -8.78,-11.9 -15.21,-16.99 -6.5,-5.17 -14.19,-10.05 -23.05,-14.7 -8.94,-4.73 -18.47,-9.68 -28.72,-14.85 -10.79,-5.47 -20.91,-11.08 -30.3,-16.7 -9.37,-5.61 -17.5,-11.81 -24.44,-18.61 -6.94,-6.8 -12.33,-14.48 -16.33,-23.04 -3.99,-8.57 -5.98,-18.61 -5.98,-30.14 0,-14.18 3.1,-26.44 9.31,-36.93 6.2,-10.49 14.4,-19.05 24.45,-25.85 10.11,-6.8 21.64,-11.82 34.57,-15.14 12.85,-3.32 26.07,-4.95 39.44,-4.95 30.58,0 52.89,3.61 66.91,11l0 40.93c-18.31,-12.71 -41.87,-19.06 -70.53,-19.06 -7.98,0 -15.88,0.81 -23.86,2.51 -7.9,1.63 -14.99,4.36 -21.2,8.05 -6.2,3.77 -11.22,8.65 -15.14,14.55 -3.91,5.91 -5.83,13.07 -5.83,21.65 0,7.9 1.47,14.77 4.43,20.53 2.95,5.76 7.31,11 13.07,15.8 5.76,4.73 12.85,9.39 21.12,13.82 8.28,4.51 17.88,9.38 28.67,14.76 11.15,5.48 21.63,11.24 31.61,17.29 9.97,6.06 18.69,12.78 26.15,20.09 7.53,7.39 13.44,15.52 17.87,24.45 4.43,9.01 6.58,19.21 6.58,30.73 0,15.29 -2.95,28.29 -8.94,38.85 -5.98,10.63 -14.12,19.28 -24.23,25.86 -10.2,6.64 -21.94,11.44 -35.16,14.4 -13.29,2.95 -27.33,4.43 -42.02,4.43 -4.88,0 -10.94,-0.37 -18.18,-1.19 -7.17,-0.81 -14.55,-1.91 -22.08,-3.47 -7.46,-1.48 -14.55,-3.39 -21.28,-5.61 -6.72,-2.21 -12.11,-4.72 -16.1,-7.46zm451.61 -297.74l-102.3 195.59 0 114.71 -36.41 0 0 -113.83 -99.73 -196.47 41.29 0 69.51 140.19c0.81,1.78 3.4,8.12 7.54,19.06l0.66 0c1.48,-4.87 4.21,-11.23 8.2,-19.06l72.75 -140.19 38.49 0zm235.17 32.87l-89.59 0 0 277.43 -36.33 0 0 -277.43 -89.38 0 0 -32.87 215.3 0 0 32.87zm213.17 277.43l-164.41 0 0 -310.3 157.55 0 0 32.87 -121.21 0 0 103.27 112.12 0 0 32.64 -112.12 0 0 108.65 128.07 0 0 32.87zm244.12 -277.43l-89.6 0 0 277.43 -36.33 0 0 -277.43 -89.38 0 0 -32.87 215.31 0 0 32.87zm-2630.56 840.01l-178.12 0 0 -336.15 170.68 0 0 35.61 -131.31 0 0 111.87 121.46 0 0 35.36 -121.46 0 0 117.7 138.75 0 0 35.61zm277.32 0l-50.68 0 -119.88 -141.96c-4.5,-5.33 -7.23,-8.94 -8.19,-10.79l-0.89 0 0 152.75 -36.34 0 0 -310.3 36.34 0 0 145.8 0.89 0c1.99,-3.17 4.72,-6.64 8.19,-10.56l115.97 -135.24 45.28 0 -133.1 148.84 142.41 161.46zm146.62 5.17c-44.03,0 -79.26,-14.48 -105.7,-43.51 -26.45,-28.95 -39.74,-66.69 -39.74,-113.15 0,-49.93 13.51,-89.74 40.48,-119.44 26.96,-29.69 63.74,-44.54 110.13,-44.54 42.91,0 77.41,14.41 103.55,43.21 26.23,28.88 39.3,66.63 39.3,113.24 0,50.59 -13.44,90.63 -40.26,120.1 -26.81,29.39 -62.71,44.09 -107.76,44.09zm2.58 -287.77c-32.57,0 -59.09,11.74 -79.4,35.24 -20.32,23.56 -30.51,54.43 -30.51,92.62 0,38.26 9.9,68.99 29.77,92.32 19.8,23.27 45.72,34.94 77.56,34.94 34.05,0 60.87,-11.07 80.51,-33.31 19.65,-22.23 29.4,-53.33 29.4,-93.29 0,-40.99 -9.46,-72.6 -28.52,-94.98 -19.05,-22.38 -45.35,-33.54 -78.81,-33.54zm456.62 282.6l-44.61 0 -159.69 -247.36c-4.06,-6.21 -7.38,-12.71 -9.97,-19.44l-1.26 0c1.11,6.65 1.7,20.84 1.7,42.63l0 224.17 -36.34 0 0 -310.3 47.12 0 155.41 243.45c6.5,10.05 10.71,16.99 12.56,20.76l0.89 0c-1.48,-8.94 -2.23,-24.15 -2.23,-45.64l0 -218.57 36.42 0 0 310.3zm206.37 5.17c-44.02,0 -79.25,-14.48 -105.7,-43.51 -26.44,-28.95 -39.73,-66.69 -39.73,-113.15 0,-49.93 13.51,-89.74 40.47,-119.44 26.96,-29.69 63.75,-44.54 110.13,-44.54 42.92,0 77.41,14.41 103.56,43.21 26.22,28.88 39.29,66.63 39.29,113.24 0,50.59 -13.44,90.63 -40.26,120.1 -26.8,29.39 -62.71,44.09 -107.76,44.09zm2.59 -287.77c-32.58,0 -59.09,11.74 -79.4,35.24 -20.33,23.56 -30.51,54.43 -30.51,92.62 0,38.26 9.9,68.99 29.77,92.32 19.79,23.27 45.72,34.94 77.55,34.94 34.05,0 60.87,-11.07 80.52,-33.31 19.65,-22.23 29.39,-53.33 29.39,-93.29 0,-40.99 -9.46,-72.6 -28.51,-94.98 -19.06,-22.38 -45.35,-33.54 -78.81,-33.54zm488.16 282.6l-36.12 0 0 -208.15c0,-8.27 0.22,-17.57 0.74,-28.06 0.51,-10.41 1.25,-21.65 2.29,-33.61l-0.9 0c-0.8,3.47 -2.13,7.32 -3.83,11.52 -1.78,4.28 -3.63,8.43 -5.54,12.34 -2,3.98 -3.77,7.53 -5.39,10.7 -1.7,3.19 -2.89,5.63 -3.62,7.17l-79.62 147.14 -17.74 0 -79.61 -146.7c-0.74,-1.7 -2,-4.21 -3.7,-7.46 -1.7,-3.25 -3.54,-6.87 -5.39,-10.85 -1.93,-3.91 -3.69,-7.98 -5.32,-12.19 -1.7,-4.2 -2.96,-8.05 -3.77,-11.67l-0.88 0c0.58,6.2 1.03,14.55 1.33,25.11 0.21,10.49 0.36,22.82 0.36,36.93l0 207.78 -35 0 0 -310.3 45.42 0 80.51 147.58c3.47,6.49 6.42,12.56 8.86,18.17 2.45,5.61 4.29,10.57 5.4,14.7l1.32 0c1.41,-4.28 3.32,-9.39 5.7,-15.14 2.43,-5.76 5.46,-11.96 9.22,-18.61l80.29 -146.7 44.99 0 0 310.3zm117.73 0l-36.34 0 0 -310.3 36.34 0 0 310.3zm292.8 -13c-22.9,12.12 -51.49,18.17 -85.69,18.17 -44.17,0 -79.47,-14.19 -106.07,-42.62 -26.51,-28.43 -39.8,-65.66 -39.8,-111.82 0,-49.64 14.99,-89.76 44.83,-120.33 29.84,-30.58 67.73,-45.87 113.61,-45.87 29.39,0 53.76,4.21 73.12,12.7l0 38.79c-22.24,-12.41 -46.76,-18.62 -73.57,-18.62 -35.61,0 -64.48,11.89 -86.64,35.68 -22.16,23.78 -33.25,55.62 -33.25,95.43 0,37.81 10.35,67.94 31.03,90.34 20.75,22.45 47.86,33.67 81.48,33.67 31.16,0 58.2,-6.94 80.95,-20.75l0 35.23zm265.76 -288.65l-181.78 268.78 177.42 0 0 32.87 -231.71 0 0 -10.19 180.23 -267.24 -165.75 0 0 -32.87 221.59 0 0 8.65zm300.39 301.65l-44.61 0 -159.69 -247.36c-4.06,-6.21 -7.38,-12.71 -9.97,-19.44l-1.26 0c1.11,6.65 1.7,20.84 1.7,42.63l0 224.17 -36.33 0 0 -310.3 47.11 0 155.42 243.45c6.49,10.05 10.71,16.99 12.55,20.76l0.89 0c-1.48,-8.94 -2.22,-24.15 -2.22,-45.64l0 -218.57 36.41 0 0 310.3zm282.97 -310.3l-102.29 195.59 0 114.71 -36.42 0 0 -113.83 -99.72 -196.47 41.28 0 69.51 140.19c0.81,1.78 3.41,8.12 7.54,19.06l0.67 0c1.47,-4.87 4.21,-11.23 8.19,-19.06l72.76 -140.19 38.48 0zm-2653.58 562.59l-87.61 310.29 -42.61 0 -63.89 -226.75c-2.73,-9.68 -4.36,-20.24 -4.95,-31.62l-0.88 0c-0.81,10.63 -2.75,21.05 -5.62,31.17l-64.26 227.2 -42.18 0 -90.93 -310.29 40.05 0 66.03 237.98c2.73,9.97 4.43,20.39 5.17,31.17l1.11 0c0.66,-7.61 2.95,-18.02 6.71,-31.17l68.54 -237.98 34.87 0 65.82 239.75c2.29,8.2 3.98,17.88 5.17,28.96l0.88 0c0.52,-7.47 2.51,-17.43 5.83,-29.84l63.37 -238.87 39.38 0zm210.28 183.23l0 127.06 -39.36 0 0 -336.15 92.33 0c35.94,0 63.78,8.73 83.63,26.25 19.75,17.52 29.59,42.16 29.59,74.09 0,31.85 -10.95,57.94 -32.88,78.27 -22,20.31 -51.69,30.48 -88.97,30.48l-44.34 0zm0 -173.47l0 137.86 41.29 0c27.12,0 47.94,-6.24 62.17,-18.64 14.33,-12.41 21.53,-30.01 21.53,-52.65 0,-44.41 -26.33,-66.57 -78.81,-66.57l-46.18 0zm351.15 305.7c-44.02,0 -79.25,-14.48 -105.7,-43.5 -26.44,-28.96 -39.74,-66.7 -39.74,-113.16 0,-49.93 13.52,-89.74 40.48,-119.44 26.96,-29.69 63.75,-44.53 110.13,-44.53 42.91,0 77.41,14.4 103.55,43.21 26.23,28.87 39.3,66.62 39.3,113.23 0,50.59 -13.44,90.63 -40.26,120.1 -26.81,29.4 -62.71,44.09 -107.76,44.09zm2.58 -287.76c-32.57,0 -59.08,11.74 -79.39,35.23 -20.33,23.56 -30.51,54.44 -30.51,92.61 0,38.27 9.89,69 29.76,92.33 19.8,23.28 45.72,34.94 77.56,34.94 34.04,0 60.86,-11.07 80.51,-33.31 19.65,-22.23 29.4,-53.32 29.4,-93.28 0,-41 -9.46,-72.61 -28.51,-94.99 -19.06,-22.38 -45.36,-33.53 -78.82,-33.53zm398.35 -19.06l-181.77 268.78 177.41 0 0 32.87 -231.7 0 0 -10.19 180.22 -267.23 -165.75 0 0 -32.87 221.59 0 0 8.64zm300.39 301.65l-44.6 0 -159.7 -247.36c-4.05,-6.21 -7.38,-12.71 -9.97,-19.43l-1.25 0c1.1,6.65 1.69,20.84 1.69,42.62l0 224.17 -36.33 0 0 -310.29 47.12 0 155.41 243.44c6.49,10.06 10.71,16.99 12.56,20.76l0.88 0c-1.47,-8.94 -2.22,-24.15 -2.22,-45.64l0 -218.56 36.41 0 0 310.29zm321.53 0l-40.25 0 -32.87 -87 -131.63 0 -30.95 87 -40.47 0 119.06 -310.29 37.67 0 119.44 310.29zm-85.09 -119.65l-48.68 -132.22c-1.55,-4.36 -3.17,-11.3 -4.72,-20.75l-0.89 0c-1.47,8.78 -3.1,15.66 -4.94,20.75l-48.32 132.22 107.55 0zm380.91 119.65l-44.61 0 -159.69 -247.36c-4.06,-6.21 -7.38,-12.71 -9.98,-19.43l-1.25 0c1.1,6.65 1.7,20.84 1.7,42.62l0 224.17 -36.34 0 0 -310.29 47.12 0 155.41 243.44c6.49,10.06 10.71,16.99 12.56,20.76l0.89 0c-1.49,-8.94 -2.23,-24.15 -2.23,-45.64l0 -218.56 36.42 0 0 310.29zm117.65 0l-36.33 0 0 -310.29 36.33 0 0 310.29zm308.61 -125.49c0,87.08 -39.3,130.66 -117.96,130.66 -75.27,0 -112.93,-41.87 -112.93,-125.71l0 -189.75 36.33 0 0 187.38c0,63.59 26.89,95.43 80.51,95.43 51.78,0 77.71,-30.72 77.71,-92.17l0 -190.64 36.34 0 0 184.8z"/>
  </g>
 </g>
</svg>
