<?xml version="1.0" encoding="UTF-8"?>
<!DOCTYPE svg PUBLIC "-//W3C//DTD SVG 1.1//EN" "http://www.w3.org/Graphics/SVG/1.1/DTD/svg11.dtd">
<!-- Creator: CorelDRAW 2019 (64-Bit Wersja próbna) -->
<svg xmlns="http://www.w3.org/2000/svg" xml:space="preserve" width="177.798mm" height="80.433mm" version="1.1"
     style="shape-rendering:geometricPrecision; text-rendering:geometricPrecision; image-rendering:optimizeQuality; fill-rule:evenodd; clip-rule:evenodd"
     viewBox="0 0 17779.8 8043.3"
>
 <defs>
  <style type="text/css">
   <
   !
   [CDATA[
   .fil1 {
     fill: #215932
   }

   .fil0 {
     fill: #215932;
     fill-rule: nonzero
   }

   ]
   ]
   >
  </style>
 </defs>
  <g id="Warstwa_x0020_1">
  <metadata id="CorelCorpID_0Corel-Layer"/>
  <g id="_2963144897664">
   <path class="fil0" d="M3898.98 936.23c843.95,0 1608.09,342.1 2161.08,895.17 553.03,553.03 895.17,1317.17 895.17,2161.12 0,131.42 -8.31,260.93 -24.41,388l-122.21 0c16.75,-126.98 25.45,-256.47 25.45,-388 0,-810.5 -328.54,-1544.32 -859.69,-2075.43 -531.09,-531.15 -1264.89,-859.7 -2075.39,-859.7 -810.47,0 -1544.27,328.55 -2075.43,859.7 -531.12,531.11 -859.69,1264.93 -859.69,2075.43 0,131.53 8.69,261.02 25.45,388l-122.18 0c-16.1,-127.07 -24.41,-256.58 -24.41,-388 0,-843.95 342.1,-1608.09 895.14,-2161.12 553.03,-553.03 1317.16,-895.17 2161.12,-895.17zm2798.44 4286.68c-153.85,349.38 -371.16,664.51 -637.36,930.71 -552.99,553.07 -1317.13,895.14 -2161.08,895.14 -843.96,0 -1608.09,-342.11 -2161.12,-895.14 -266.21,-266.2 -483.48,-581.33 -637.32,-930.71l132.94 0c146.17,316.09 346.87,601.79 590.07,845.02 531.16,531.13 1264.96,859.71 2075.43,859.71 810.5,0 1544.3,-328.58 2075.39,-859.71 243.23,-243.23 443.89,-528.93 590.06,-845.02l132.99 0z"/>
   <path class="fil1" d="M3771.63 5781.29c-282.53,-206.4 -543.22,-460.74 -440.91,-843.87 42.71,-144.07 151.96,-269.78 306.97,-392.45l-19.23 -10.59c-298.23,-164.72 -740.87,-436.67 -888.08,-612.65 -289.99,-374.76 -44.29,-907.44 329.7,-1152.07 159.14,23.69 317.88,40.82 476.35,51.41 54.25,326.12 -406.17,286.66 -528.79,420.25 -373.14,400.85 243.7,734.57 786.07,1068.93l-7.45 -429.65 0.09 -90.18 -17.85 -820.93c-2.83,-155.52 220.06,-161.05 234.36,-6.91l-22.27 833.37 -2.62 84.65 -6.75 437.62c545.51,-337.12 1174.93,-672.92 798.9,-1076.9 -122.09,-133.04 -579.39,-94.44 -529.47,-416.36 162.72,-9.19 324.99,-25.43 486.93,-48.77 368.39,247.51 607.31,774.09 319.79,1145.54 -147.21,175.98 -589.83,447.93 -888.12,612.65l-19.25 10.5c155.09,122.76 264.28,248.47 306.99,392.54 102.31,383.13 -158.38,637.47 -440.91,843.87 11.58,10.98 22.93,21.9 34.03,32.85 116.87,140.31 193.12,322.35 227.78,518.52 33.89,171.18 -82.58,198.56 -132.31,-0.69 -36.37,-134.02 -104.75,-256.74 -189.37,-367.21l0.31 634.14c-7.33,65.08 -115.12,65.21 -121.72,0l-0.22 -631.96c-80.69,107.52 -147.39,235.76 -182.4,365.18 -31.72,178.82 -163.31,197.82 -132.04,-0.51 34.74,-195.7 110.81,-377.47 227.51,-517.47 11.08,-10.95 22.45,-21.87 33.98,-32.85zm-935.41 -3362.54l0.59 -0.18 1.85 -0.45 2.4 -0.62 2.46 -0.6 0.36 -0.13 2.07 -0.51 2.44 -0.62 2.46 -0.63 0.09 -0.06 4.78 -1.16 2.37 -0.64 0.12 0 2.44 -0.64 2.49 -0.63 2.1 -0.49 0.36 -0.09 2.47 -0.64 2.5 -0.64 1.81 -0.49 0.68 -0.14 2.43 -0.64 2.5 -0.62 1.58 -0.42 0.91 -0.22 2.49 -0.63 2.49 -0.64 1.35 -0.36 1.14 -0.28 2.53 -0.61 3.53 -0.97 1.46 -0.36 2.47 -0.62 2.49 -0.69 0.82 -0.22 1.67 -0.42 2.5 -0.67 2.49 -0.64 0.58 -0.18 1.95 -0.49 2.49 -0.67 2.49 -0.69 0.31 -0.1 2.16 -0.58 2.5 -0.67 2.49 -0.69 0.05 -0.04 2.44 -0.63 2.49 -0.73 2.26 -0.64 0.18 -0.04 2.49 -0.72 2.49 -0.73 1.99 -0.58 0.45 -0.09 2.49 -0.73 2.44 -0.77 1.76 -0.49 0.73 -0.23 2.44 -0.73 2.45 -0.76 1.5 -0.46 0.94 -0.27 2.44 -0.77 2.46 -0.76 1.25 -0.42 1.18 -0.36 2.4 -0.8 2.44 -0.78 1 -0.31 1.4 -0.51 2.4 -0.77 2.44 -0.82 0.73 -0.27 1.63 -0.53 2.39 -0.87 2.4 -0.8 0.51 -0.18 1.85 -0.69 2.4 -0.86 2.35 -0.85 0.22 -0.09 2.13 -0.77 2.31 -0.87 2.36 -0.89 2.53 2.38 2.58 2.31 2.57 2.37 2.64 2.25 2.65 2.26 2.67 2.27 2.68 2.17 0.05 0 2.71 2.18 2.77 2.11 2.74 2.13 2.82 2.09 2.81 2.04 0.03 0 2.8 1.98 0.06 0 2.85 2 2.9 1.94 2.94 1.9 2.93 1.91 2.95 1.85 0.03 0 3 1.8 2.99 1.77 0.03 0 3.01 1.76 0.03 0 3.04 1.67 3.07 1.68 0.04 0 3.09 1.67 3.11 1.58 3.13 1.59 0.04 0 3.13 1.54 0.03 0 3.19 1.49 3.2 1.46 3.22 1.4 3.25 1.4 3.26 1.36 3.31 1.31 3.29 1.26 3.31 1.27 3.35 1.19 3.35 1.16 0.05 0 3.35 1.15 3.38 1.03 3.4 1.09 0.04 0 3.4 0.99 0.04 0 3.4 0.96 0.03 0 3.44 0.95 3.49 0.85 3.5 0.86 3.52 0.78 3.53 0.76 3.53 0.73 3.57 0.67 3.58 0.64 3.57 0.58 3.62 0.6 3.58 0.49 0.03 0 3.62 0.46 3.62 0.45 3.68 0.37 3.65 0.34 3.68 0.27 3.71 0.24 3.71 0.22 3.71 0.14 3.71 0.13 3.75 0.06 3.76 0.03c166.25,0 300.97,-134.71 300.97,-300.91l-0.06 -3.98 -0.04 -3.93 -0.14 -3.94 -0.18 -3.93 -0.22 -3.95 -0.27 -3.89 -0.33 -3.9 -0.4 -3.89 -0.4 -3.84 -0.51 -3.85 -0.49 -3.84 -0.58 -3.84 -0.64 -3.8 -0.64 -3.77 -0.72 -3.74 0 -0.06 -0.77 -3.71 0 -0.03 -0.82 -3.71 -0.82 -3.72 -0.91 -3.71 -0.94 -3.67 0 -0.04 -0.98 -3.62 0 -0.05 -1.06 -3.62 -1.07 -3.62 -1.09 -3.62 -1.19 -3.56 -1.21 -3.59 -1.28 -3.53 0 -0.03 -1.25 -3.5 0 -0.03 -1.37 -3.49 -1.36 -3.5 -1.44 -3.43 0 -0.04 -1.45 -3.4 0 -0.04 -1.49 -3.4 -1.59 -3.38 -1.58 -3.4 -1.64 -3.35 -1.67 -3.31 0 -0.04 -1.67 -3.25 0 -0.06 -1.77 -3.25 -1.76 -3.26 -1.86 -3.22 0 -0.04 -1.85 -3.16 0 -0.06 -1.89 -3.16 -1.95 -3.11 0 -0.06 -2 -3.12 -1.98 -3.08 0 -0.04 -2.08 -3.03 0 -0.04 -2.09 -3.04 -2.13 -2.98 0 -0.05 -2.13 -2.99 -2.21 -2.94 0 -0.04 -2.22 -2.89 0 -0.06 -2.26 -2.89 -2.31 -2.89 -2.35 -2.86 -2.36 -2.8 -2.44 -2.8 -2.4 -2.76 -2.49 -2.77 -2.47 -2.71 -2.59 -2.67 -2.53 -2.62 -2.63 -2.64 -2.62 -2.56 0.82 -1.24 0.81 -1.22 0.8 -1.26 0.82 -1.23 0.82 -1.22 0.86 -1.22 0.82 -1.27 0.85 -1.22 0.82 -1.26 0.85 -1.23 0.86 -1.26 0.87 -1.22 0.86 -1.27 0.85 -1.22 0.87 -1.27 0.86 -1.26 0.91 -1.27 0.85 -1.22 0 -0.05 0.91 -1.22 0.89 -1.28 0.91 -1.25 0.86 -1.27 0.91 -1.28 0.94 -1.31 0.91 -1.25 0.91 -1.28 0.95 -1.27 0.91 -1.31 0.94 -1.27 0.95 -1.31 0.96 -1.26 0.9 -1.31 1 -1.27 0 -0.05 0.94 -1.26 0.97 -1.31 0.98 -1.33 0.96 -1.31 0.98 -1.31 1 -1.31 0.95 -1.3 1.04 -1.31 1 -1.31 0 -0.06 1 -1.31 1 -1.31 0 -0.05 1.04 -1.31 1 -1.31 0 -0.04 1.03 -1.33 1.04 -1.34 1.04 -1.37 1.03 -1.31 0 -0.03 1.06 -1.33 0 -0.04 1.07 -1.36 1.06 -1.35 1.07 -1.36 1.09 -1.37 0 -0.03 1.04 -1.37 1.09 -1.34 0 -0.06 1.09 -1.36 1.13 -1.35 0 -0.05 1.09 -1.35 0 -0.05 1.13 -1.35 0 -0.05 1.07 -1.35 0 -0.05 1.15 -1.37 0 -0.03 1.12 -1.37 0 -0.03 9.14 -10.77 0 -0.06 9.6 -10.4 0 -0.04 9.99 -10.09 0 -0.06 10.42 -9.73 0 -0.03 10.86 -9.37 0 -0.04 11.22 -9.06 0 -0.05 11.59 -8.68 0 -0.05 11.93 -8.32 0 -0.05 12.31 -8 0 -0.06 12.63 -7.64 12.93 -7.33 0 -0.05 13.26 -6.91 0 -0.06 13.53 -6.6 0 -0.04 13.75 -6.26 0 -0.03 14.08 -5.93 0 -0.06 14.3 -5.56 0 -0.04 14.53 -5.2 0 -0.05 14.7 -4.88 14.93 -4.58 15.12 -4.21 0 -0.03 15.3 -3.86 15.42 -3.53 0 -0.03 15.57 -3.13 0 -0.06 15.7 -2.8 0 -0.03 15.8 -2.5 15.92 -2.12 0 -0.04 15.97 -1.76 0 -0.06 16.02 -1.45 16.12 -1.13 16.1 -0.77 16.15 -0.45 16.15 -0.09 16.17 0.24 0 0.03 16.16 0.58 16.06 0.91 16.06 1.28 0 0.03 15.97 1.59 15.88 1.94 0 0.06 15.8 2.25 15.65 2.68 15.57 2.98 15.42 3.31 15.26 3.65 15.06 4.04 14.94 4.33 14.71 4.68 14.48 5.02 0 0.03 14.24 5.35 14.03 5.69 13.77 6.08 13.48 6.37 13.2 6.71 0 0.03 12.9 7.03 0 0.03 12.58 7.39 12.26 7.73 11.95 8.05 0 0.04 11.54 8.39 0 0.03 11.18 8.73 10.77 9.1 10.37 9.42 0 0.04 9.95 9.73 0 0.05c3.2,3.3 6.47,6.61 9.55,10.04l0 0.04 9.09 10.4 0 0.06 8.59 10.73 0 0.04 1.69 1.73 0 0.03 1.67 1.67 0 0.06 1.68 1.71 0 0.05 1.62 1.68 0 0.03 1.58 1.68 0.05 0 1.58 1.67 0 0.06 1.59 1.61 0 0.06 1.53 1.67 0.05 0 1.53 1.62 0 0.06 1.51 1.61 0.03 0 1.5 1.64 0 0.04 1.49 1.6 0.05 0.03 1.44 1.59 1.45 1.63 0.04 0 1.42 1.59 0.04 0 1.4 1.58 0.05 0 1.4 1.58 1.4 1.58 1.37 1.53 0.03 0 1.37 1.55 1.34 1.54 1.37 1.53 1.31 1.55 1.31 1.49 0.05 0 1.26 1.49 1.27 1.49 0.03 0 1.24 1.49 0.04 0 2.49 2.95 1.22 1.46 1.22 1.43 1.18 1.46 0.04 0 1.18 1.4 0 0.04 1.18 1.4 1.18 1.41 1.13 1.41 0 0.03 1.13 1.37 1.13 1.4 1.12 1.36 0 0.04 1.1 1.36 1.09 1.35 0 0.05 1.07 1.31 0 0.04 2.13 2.67 0 0.06 1.05 1.25 0 0.06 0.99 1.31 0 0.03 1.03 1.28 0 0.05 1 1.31 1 1.31 0 0.04 1 1.27 0 0.05 0.95 1.26 1 1.27 0 0.04 0.95 1.27 0 0.04 0.91 1.23 0 0.04 0.94 1.27 0 0.04 0.91 1.22 0 0.05 0.89 1.22 0 0.06 0.91 1.22 0 0.03 0.91 1.22 0 0.06 0.86 1.21 0 0.06 0.9 1.16 0 0.06 0.86 1.22 0 0.03 0.82 1.24 0 0.04 0.85 1.18 0 0.03 -1.16 1.28 -1.15 1.22 0 0.05 -2.25 2.53 -1.4 1.62 -0.82 0.91 0 0.05 -2.22 2.57 0 0.05 -1.62 1.89 -0.55 0.69 0 0.04 -2.18 2.58 0 0.04 -1.85 2.31 -0.28 0.36 0 0.06 -2.07 2.62 0 0.05 -2.04 2.66 -0.03 0.05 0 0.04 -2 2.67 0 0.06 -2.04 2.74 0 0.06 -0.18 0.22 -1.77 2.54 0 0.04 -1.94 2.76 0 0.04 -0.4 0.55 -1.5 2.25 0 0.06 -1.91 2.8 0 0.05 -0.58 0.89 -1.22 1.95 0 0.05 -1.85 2.86 0 0.04 -0.78 1.27 -0.99 1.62 0 0.05 -1.72 2.95 -1 1.67 -0.71 1.26 0 0.05 -1.73 2.99 -1.09 2.03 -0.53 0.95 0 0.05 -1.64 3.02 -1.27 2.4 -0.31 0.64 0 0.04 -1.55 3.03 0 0.06 -1.34 2.8 -0.15 0.27 -1.49 3.11 -1.44 3.13 0 0.06 -0.05 0.03 -1.36 3.08 0 0.05 -1.35 3.11 0 0.06 -0.18 0.4 -1.19 2.76 -1.25 3.22 -0.36 0.8 -0.91 2.4 0 0.06 -1.22 3.2 0 0.05 -1.22 3.2 0 0.06 -1.15 3.25 -1.12 3.32 -1.1 3.34 -0.61 1.98 -0.42 1.31 0 0.06 -0.98 3.29 0 0.06 -0.73 2.4 -0.28 0.94 -0.9 3.4 -0.91 3.39 -0.86 3.4 0 0.03 -0.76 3.26 0 0.15 0 0.03 -0.82 3.44 -0.73 3.44 -0.04 0.27 -0.63 3.22 -0.69 3.49 -0.08 0.68 -0.51 2.85 -0.58 3.48 0 0.05 -0.14 1.04 -0.37 2.49 -0.49 3.53 -0.45 3.56 -0.4 3.59 -0.37 3.56 -0.31 3.58 -0.32 3.62 -0.22 3.62 -0.15 2.81 -0.03 0.81 -0.19 3.66 -0.09 3.67 -0.09 3.66 0 3.67c0,166.2 134.71,300.91 300.96,300.91l3.72 0 3.71 -0.09 0.34 0 0.55 0 2.82 -0.09 3.71 -0.18 0.62 -0.04 3.03 -0.14 3.68 -0.28 3.65 -0.27 3.62 -0.31 3.62 -0.4 3.62 -0.42 3.62 -0.45 3.59 -0.49 1.94 -0.31 1.62 -0.24 3.58 -0.58 2.22 -0.42 1.35 -0.22 3.53 -0.67 3.49 -0.73 3.53 -0.73 3.47 -0.81 3.5 -0.82 3.07 -0.77 0.36 -0.09 3.44 -0.94 3.44 -0.95 3.4 -0.96 0 -0.04 3.38 -1 0.28 -0.09 3.13 -0.98 3.34 -1.09 3.35 -1.19 3.31 -1.16 3.29 -1.24 3.31 -1.25 3.26 -1.28 3.25 -1.36 3.22 -1.35 3.2 -1.4 3.17 -1.45 3.18 -1.46 0 -0.03 1.95 -0.91 1.22 -0.59 3.11 -1.54 3.13 -1.58 3.07 -1.62 2.46 -1.31 0.62 -0.33 3.03 -1.67 0 -0.04 2.68 -1.51 0.36 -0.16 0 -0.06 2.98 -1.73 0 -0.03 2.9 -1.73 0.09 -0.04 5.89 -3.67 0.16 -0.13 2.77 -1.76 2.89 -1.89 0 -0.06 0.42 -0.27 2.44 -1.62 0 -0.05 2.85 -1.95 0 -0.04 0.67 -0.45 2.13 -1.55 2.8 -2.04 2.77 -2.07 2.71 -2.09 0 -0.04 1.18 -0.85 1.58 -1.28 2.68 -2.18 1.36 -1.07 1.31 -1.09 0 -0.04 2.62 -2.18 0 -0.04 1.58 -1.36 1.04 -0.86 0 -0.05 2.58 -2.26 0 -0.05 1.77 -1.53 0.82 -0.73 0 -0.03 2.52 -2.31 0 -0.06 8.28 3.13 2.09 0.76 2.08 0.73 0.51 0.22 1.61 0.55 2.1 0.72 6.36 2.17 2.13 0.73 1 0.36 1.18 0.36 2.13 0.73 6.51 2.07 2.17 0.7 1.49 0.49 0.69 0.18 2.16 0.67 2.22 0.69 1.73 0.53 0.44 0.09 2.22 0.69 2.18 0.68 2.04 0.58 0.18 0.05 2.22 0.64 2.2 0.67 2.22 0.64 0.05 0.03 2.17 0.6 2.22 0.62 2.22 0.64 0.31 0.09 1.91 0.55 2.25 0.63 2.22 0.59 0.55 0.18 1.72 0.45 2.2 0.64 2.28 0.58 0.76 0.24 1.46 0.4 2.25 0.58 2.28 0.6 1.03 0.31 1.17 0.33 2.27 0.58 2.26 0.58 1.27 0.36 0.95 0.24 2.27 0.58 2.25 0.64 1.53 0.4 0.69 0.18 2.26 0.6 2.27 0.58 1.8 0.49 0.46 0.1 2.22 0.6 6.75 1.71 2.25 0.58 2.22 0.6 0.04 0.03 2.22 0.55 2.21 0.58 2.26 0.6 0.27 0.09 1.95 0.49 6.71 1.73 2.2 0.58c99.88,26.29 189.52,54.35 191.77,133.44l3 0.69c-215.21,49.01 -431.05,85.33 -647.67,109.09 -11.62,0.9 -22.99,1.91 -34.03,3.03 -404.93,41.13 -780.92,39.78 -1202.01,-2.71l-2.64 -0.27c-215.01,-23.17 -430.78,-58.33 -647.1,-105.34l9.58 -3 -6.24 -0.89c0,-78.28 83.22,-106.08 181.13,-131.42zm964.97 2320.97c-212.91,139.13 -279.15,248.83 -278.39,478.66 0.49,131 139.46,261.31 293.54,395.25l-15.15 -873.91zm163.7 -7.56c222.32,142.82 290.78,252.41 290.02,486.22 -0.46,133.8 -145.39,266.78 -303.58,403.86l13.56 -890.08z"/>
   <path class="fil1" d="M3199.99 1928.48l4.48 0.09c123.12,2.4 222.18,102.84 222.18,226.56 0,123.67 -99.06,224.17 -222.18,226.57l-4.48 0.09 -1.36 0 -4.48 -0.09c-34.34,-0.67 -66.73,-8.91 -95.71,-23.21l-0.36 -0.18 -0.44 -0.24c-14.04,-6.64 -29.05,-15.88 -44.67,-29.32l-0.31 -0.27c-14.9,-12.57 -28.19,-26.96 -39.42,-42.89 -45.74,-61.08 -92.89,-167.16 -131.4,-356.35l298.78 0c4.48,-0.36 9.01,-0.58 13.53,-0.67l4.48 -0.09 1.36 0z"/>
   <path class="fil1" d="M4644.01 1928.48c6.24,0 12.39,0.31 18.47,0.76l298.29 0c-38.62,189.73 -85.95,295.85 -131.82,356.89 -11.23,15.83 -24.49,30.18 -39.33,42.62l-1.45 1.28 -2.17 1.8 -2.07 1.63c-12.5,10.1 -24.67,17.61 -36.16,23.27l-0.58 0.27 -2.68 1.31c-30.28,14.97 -64.39,23.48 -100.5,23.48 -125.21,0 -226.65,-101.49 -226.65,-226.66 0,-125.21 101.44,-226.65 226.65,-226.65z"/>
   <path class="fil1" d="M2612.78 5021.64c0,7.64 -0.4,14.02 -1.27,19.32 -0.8,5.29 -1.93,9.58 -3.47,12.66 -1.49,3.04 -3.17,5.38 -5.11,6.66 -1.82,1.4 -4.04,2.09 -6.57,2.09l-290.54 0c-2.22,0 -4.35,-0.69 -6.11,-2.09 -1.95,-1.28 -3.62,-3.62 -5.17,-6.66 -1.53,-3.08 -2.62,-7.37 -3.47,-12.66 -0.82,-5.3 -1.27,-11.68 -1.27,-19.32 0,-7.93 0.45,-14.44 1.12,-19.73 0.68,-5.3 1.68,-9.59 3.22,-12.81 1.49,-3.31 3.17,-5.66 5.11,-7.2 1.8,-1.4 4.02,-2.22 6.57,-2.22l98.1 0 0 -342.85 -84.8 46.83c-6.24,3.08 -11.23,4.9 -15.25,5.57 -3.89,0.67 -6.98,-0.15 -9.33,-2.49 -2.34,-2.26 -3.89,-6.3 -4.74,-11.95 -0.68,-5.7 -1.1,-13.79 -1.1,-24.07 0,-6.51 0.15,-11.8 0.42,-16.11 0.13,-4.17 0.86,-7.79 1.95,-10.72 1.13,-3.03 2.62,-5.38 4.42,-7.33 1.94,-1.94 4.62,-3.89 7.78,-6.11l113.27 -73.27c1.27,-1.12 2.95,-1.94 5.02,-2.62 2.09,-0.72 4.71,-1.27 7.91,-1.67 3.37,-0.42 7.51,-0.73 12.95,-0.85 5.24,-0.15 12.08,-0.15 20.54,-0.15 10.28,0 18.64,0.15 25.03,0.58 6.38,0.42 11.13,1.09 14.44,2.09 3.2,0.82 5.42,2.22 6.55,3.75 0.96,1.64 1.49,3.77 1.49,6.11l0 435.26 85.89 0c2.53,0 4.75,0.82 6.84,2.22 1.95,1.54 3.75,3.89 5.29,7.2 1.49,3.22 2.49,7.51 3.17,12.81 0.72,5.29 1.12,11.8 1.12,19.73zm428.71 -246.67c0,21.41 -1.14,43.62 -3.35,66.58 -2.09,22.93 -6.25,45.29 -12.36,67.37 -6.1,21.99 -14.61,42.8 -25.29,62.72 -10.67,19.72 -24.61,37.1 -41.54,51.8 -16.97,14.9 -37.56,26.56 -61.86,35.31 -24.29,8.64 -52.94,12.93 -86.15,12.93 -11.68,0 -23.21,-0.73 -34.76,-2.35 -11.53,-1.67 -22.08,-3.76 -31.54,-6.16 -9.59,-2.49 -17.64,-4.97 -24.16,-7.79 -6.69,-2.62 -11.53,-5.38 -14.47,-8.31 -3.04,-2.77 -5.3,-6.93 -6.52,-12.35 -1.41,-5.44 -2.09,-13.08 -2.09,-22.81 0,-9 0.15,-16.24 0.55,-21.68 0.4,-5.42 1.27,-9.59 2.49,-12.48 1.25,-3.09 2.67,-5.04 4.47,-5.98 1.82,-1.01 3.9,-1.41 6.39,-1.41 3.22,0 7.78,0.95 13.75,2.77 5.98,1.95 13.22,4.16 21.81,6.55 8.46,2.49 18.19,4.58 29.05,6.53 11,1.94 22.95,2.89 36.29,2.89 22.77,0 42.09,-4.17 57.78,-12.22 15.72,-8.19 28.52,-19.19 38.38,-33.07 9.73,-13.77 16.92,-29.74 21.54,-47.93 4.56,-18.23 7.24,-37.38 7.78,-57.42 -12.53,7.78 -27.64,14.75 -45.29,20.59 -17.66,5.83 -37.83,8.73 -60.59,8.73 -27.97,0 -51.73,-3.75 -71.32,-10.95 -19.59,-7.37 -35.43,-17.92 -47.65,-31.85 -12.26,-13.9 -21.12,-30.69 -26.69,-50.41 -5.56,-19.91 -8.33,-42.27 -8.33,-67.3 0,-26.23 4.02,-50.44 11.81,-72.66 7.93,-22.09 19.59,-41.28 35.03,-57.37 15.57,-16.16 34.74,-28.65 57.79,-37.69 23.06,-8.88 49.91,-13.35 80.18,-13.35 24.48,0 45.87,2.8 64.21,8.49 18.37,5.71 34.06,13.9 47.23,24.45 13.08,10.58 24.21,23.34 32.94,38.51 8.79,15.02 15.7,31.81 20.72,50.31 5.17,18.33 8.61,38.32 10.7,59.73 1.93,21.54 3.07,43.93 3.07,67.28zm-106.3 -14.75c0,-29.05 -1.67,-53.35 -4.89,-72.81 -3.35,-19.59 -8.19,-35.16 -14.7,-46.82 -6.56,-11.68 -14.62,-20.01 -24.35,-24.9 -9.86,-4.84 -21.27,-7.37 -34.35,-7.37 -12.62,0 -23.6,2.4 -32.88,6.84 -9.19,4.42 -16.84,10.68 -22.96,18.9 -6.09,8.2 -10.71,17.79 -13.75,28.89 -2.93,11.13 -4.44,23.33 -4.44,36.68 0,14.36 1.24,26.98 3.9,38.11 2.63,10.95 6.65,19.99 12.22,27.23 5.57,7.2 12.77,12.5 21.81,16.12 8.91,3.47 19.73,5.29 32.54,5.29 15.7,0 30.54,-2.4 44.56,-7.24 13.94,-4.71 26.43,-11.01 37.29,-18.92zm2122 258.66c0,7.78 -0.55,14.6 -1.09,20.13 -0.53,5.42 -1.8,10.1 -3.08,13.63 -1.16,3.38 -3.16,6.02 -5.29,7.51 -2.04,1.4 -4.75,2.22 -7.19,2.22l-302.96 0c-5.78,0 -11.17,-0.69 -15.42,-1.69 -4.35,-1.04 -8.1,-3.17 -10.72,-6.24 -2.63,-3.02 -4.67,-7.73 -5.84,-13.63 -1.14,-5.87 -1.81,-13.75 -1.81,-23.21 0,-9.04 0.58,-16.73 1.27,-23.08 0.64,-6.28 2.31,-12.08 4.44,-17.04 2.11,-4.99 5.02,-9.92 8.36,-14.63 3.35,-4.62 7.83,-9.95 13.17,-15.69l91.17 -97.7c17.97,-19.28 33.03,-36.38 44.07,-52 11.01,-15.46 19.88,-29.91 25.98,-42.62 6.2,-12.81 10.69,-24.94 12.89,-35.74 2.22,-10.68 3.37,-21.14 3.37,-30.87 0,-9 -1.46,-17.64 -4.17,-25.43 -2.76,-8 -7.2,-15.06 -12.62,-20.95 -5.48,-5.88 -12.64,-10.72 -21.01,-14.06 -8.49,-3.37 -18.37,-5.13 -29.72,-5.13 -16.03,0 -30.27,2.18 -42.55,6.11 -12.29,3.94 -23.3,8.73 -32.52,13.62 -9.37,4.93 -17.33,9.73 -23.48,13.9 -6.17,4.11 -11.13,6.24 -14.57,6.24 -2.55,0 -4.71,-0.91 -6.44,-2.49 -1.53,-1.44 -3.2,-4.42 -4.17,-8.04 -0.94,-3.72 -2.2,-9.03 -2.74,-15.3 -0.51,-6.3 -1,-14.17 -1,-23.36 0,-6.24 0.45,-11.62 0.72,-15.69 0.28,-4.22 1.08,-7.97 1.8,-11.01 0.79,-3.02 1.91,-5.93 3.17,-8.18 1.33,-2.26 3.8,-5.26 7.11,-8.34 3.35,-3.16 9.77,-7.42 18.74,-12.35 9.13,-4.98 20.31,-10.04 33.67,-14.75 13.35,-4.71 28.01,-8.78 43.89,-11.95 16,-3.2 32.79,-4.87 50.18,-4.87 27.38,0 51.35,3.44 71.85,10.31 20.32,6.84 37.56,16.61 51,28.92 13.57,12.35 23.85,27.14 30.42,44.02 6.6,16.88 9.85,35.16 9.85,54.75 0,17.12 -1.63,33.98 -4.83,50.46 -3.17,16.42 -10.06,34.52 -20.29,53.47 -10.25,19.16 -25.01,40.33 -43.65,63.54 -18.64,23.12 -44.26,49.78 -74.49,80.87l-61.4 63.12 207.61 0c2.62,0 5.24,0.91 7.51,2.49 2.26,1.58 4.39,4.11 5.97,7.51 1.45,3.2 2.85,7.88 3.62,13.35 0.73,5.42 1.22,12.21 1.22,19.87zm430.65 -132.46c0,26.7 -4.17,51.37 -12.22,73.94 -8.01,22.54 -19.96,42.27 -35.71,58.64 -15.75,16.39 -35.29,29.38 -58.24,38.66 -23.03,9.27 -49.73,14.02 -79.76,14.02 -24.45,0 -45.89,-2.95 -63.9,-8.37 -18.15,-5.53 -34.07,-13.62 -47.29,-24.03 -13.17,-10.4 -24.34,-23.11 -32.62,-37.92 -8.38,-14.88 -15.26,-31.9 -20.19,-50.59 -4.93,-18.69 -8.51,-39.14 -10.27,-61 -1.81,-21.9 -2.9,-45.33 -2.9,-70.05 0,-20.72 1.04,-42.34 3.04,-64.74 1.98,-22.44 6.02,-44.67 11.81,-66.3 5.8,-21.81 14.16,-42.61 24.62,-62.13 10.5,-19.63 24.43,-37.02 40.98,-51.71 16.61,-14.72 36.89,-26.71 60.59,-35.29 23.63,-8.61 51.95,-12.9 84.49,-12.9 10.28,0 20.78,0.71 31.14,1.8 10.26,1.09 20.27,2.77 29.18,4.57 8.82,1.76 16.66,4.16 22.81,6.53 6.2,2.34 10.4,4.78 12.35,6.42 1.91,1.62 3.67,3.75 4.71,5.84 1.07,2.16 2.07,4.6 2.67,7.06 0.62,2.52 1.17,5.93 1.35,9.58 0.24,3.8 0.46,8.46 0.46,13.9 0,8.33 -0.22,15.51 -0.59,20.99 -0.32,5.47 -1.22,9.91 -2.22,13.08 -1,2.98 -2.76,5.29 -4.56,6.65 -1.77,1.28 -4.17,2.08 -6.84,2.08 -3.31,0 -7.51,-1.04 -12.62,-2.75 -5.12,-1.73 -11.41,-3.62 -18.79,-5.84 -7.37,-2.22 -15.97,-4.04 -25.83,-5.71 -9.86,-1.67 -21.41,-2.53 -34.49,-2.53 -21.94,0 -40.63,4.26 -55.7,12.26 -15.06,8.06 -27.64,19.28 -37.1,33.22 -9.41,13.93 -16.52,30.23 -20.72,48.63 -4.22,18.38 -6.66,38.06 -6.93,58.65 5.97,-3.75 12.77,-7.64 20.54,-11.41 7.78,-3.74 16.2,-7.09 25.3,-9.71 8.96,-2.64 19.01,-5.2 29.46,-6.84 10.5,-1.64 21.81,-2.62 33.8,-2.62 26.65,0 49.55,3.71 68.5,10.99 18.88,7.2 34.52,17.88 46.53,31.41 12.02,13.52 21.08,30.09 26.68,49.18 5.62,19.23 8.48,40.73 8.48,64.34zm-104.9 10.28c0,-13.9 -1.4,-26.01 -3.75,-36.56 -2.31,-10.28 -6.38,-19.14 -11.82,-26.38 -5.42,-7.24 -12.75,-12.71 -21.53,-16.24 -8.95,-3.62 -19.87,-5.57 -32.53,-5.57 -7.66,0 -15.26,0.77 -22.5,2.08 -7.15,1.31 -14.51,3.34 -21.53,5.69 -6.97,2.36 -13.9,5.38 -20.32,8.75 -6.42,3.29 -12.63,6.97 -18.34,10.86 0,29.05 1.79,53.29 4.86,72.52 3.11,19.37 8.13,34.98 14.48,46.29 6.29,11.28 14.33,19.52 24.03,24.18 9.55,4.65 20.86,7.23 33.61,7.23 12.35,0 23.39,-2.45 32.67,-6.96 9.42,-4.53 17.24,-11.22 23.48,-19.59 6.17,-8.33 11.01,-18.34 14.17,-29.47 3.17,-11.22 5.02,-23.63 5.02,-36.83z"/>
   <path class="fil1" d="M3840.15 3780.69c7.53,-4.26 16.77,-9.01 24.3,-13.26 -12.6,-45.46 -38.78,-82.49 -75.59,-112.91 -25.54,-18 -22.59,-67.41 -47.13,-101.13 -86.64,-144.22 -249.8,-187.28 -498.75,-116.83 74.52,138.13 164.9,263.15 360.31,301.42 134.18,28.46 125.02,-79.53 175.75,-44.18 25.15,15.69 46.67,37.41 61.11,86.89z"/>
   <path class="fil1" d="M3928.33 3780.69c-7.53,-4.26 -16.77,-9.01 -24.3,-13.26 12.61,-45.46 38.78,-82.49 75.6,-112.91 25.54,-18 22.59,-67.41 47.13,-101.13 86.63,-144.22 249.79,-187.28 498.75,-116.83 -74.52,138.13 -164.9,263.15 -360.31,301.42 -134.19,28.46 -125.02,-79.53 -175.75,-44.18 -25.16,15.69 -46.67,37.41 -61.12,86.89z"/>
   <path class="fil0" d="M8706.2 2266c0,285.03 -128.63,427.67 -386.09,427.67 -246.39,0 -369.66,-137.09 -369.66,-411.48l0 -621.12 118.94 0 0 613.35c0,208.18 88,312.37 263.53,312.37 169.49,0 254.32,-100.55 254.32,-301.71l0 -624.01 118.96 0 0 604.93zm999.26 410.73l-134.79 0 -482.53 -747.4c-12.24,-18.75 -22.28,-38.38 -30.12,-58.7l-3.78 0c3.33,20.09 5.13,62.94 5.13,128.77l0 677.33 -109.79 0 0 -937.55 142.36 0 469.56 735.58c19.63,30.38 32.38,51.33 37.97,62.72l2.65 0c-4.45,-27.02 -6.69,-72.96 -6.69,-137.92l0 -660.38 110.03 0 0 937.55zm355.49 0l-109.77 0 0 -937.55 109.77 0 0 937.55zm1358.04 -937.55l-264.71 937.55 -128.75 0 -193.04 -685.12c-8.26,-29.25 -13.17,-61.15 -14.97,-95.53l-2.66 0c-2.45,32.12 -8.29,63.59 -16.97,94.17l-194.17 686.48 -127.43 0 -274.74 -937.55 120.98 0 199.52 719.08c8.26,30.12 13.39,61.59 15.63,94.17l3.34 0c2,-22.99 8.92,-54.46 20.28,-94.17l207.11 -719.08 105.35 0 198.87 724.43c6.91,24.77 12.04,54.02 15.62,87.47l2.66 0c1.58,-22.53 7.58,-52.66 17.62,-90.14l191.48 -721.76 118.98 0zm636.05 937.55l-496.77 0 0 -937.55 476.01 0 0 99.33 -366.22 0 0 312 338.77 0 0 98.63 -338.77 0 0 328.28 386.98 0 0 99.31zm852.73 0l-130.78 0 -157.1 -262.87c-14.3,-24.34 -28.34,-45.09 -41.74,-62.5 -13.59,-17.21 -27.45,-31.25 -41.49,-41.96 -14.3,-10.95 -29.47,-18.99 -45.75,-23.9 -16.3,-5.13 -34.83,-7.59 -55.37,-7.59l-90.16 0 0 398.82 -109.78 0 0 -937.55 279.85 0c40.83,0 78.78,5.13 113.35,15.42 34.62,10.24 64.74,25.67 90.2,46.62 25.65,20.99 45.5,47.08 59.79,78.11 14.5,31.25 21.67,67.63 21.67,109.57 0,32.6 -4.93,62.74 -14.75,89.95 -9.81,27.25 -23.67,51.55 -41.75,72.76 -18.04,21.44 -39.92,39.72 -65.37,54.69 -25.67,14.95 -54.24,26.78 -86.15,35.03l0 2.68c15.86,6.91 29.45,14.73 41.07,23.66 11.37,9.15 22.54,19.63 32.8,31.91 10.5,12.04 20.99,25.88 31.23,41.51 10.3,15.4 21.67,33.48 34.16,53.76l176.07 281.88zm-562.39 -838.22l0 340.13 149.09 0c27.43,0 52.88,-4.26 76.09,-12.5 23.45,-8.3 43.53,-20.12 60.5,-35.74 16.95,-15.39 30.32,-34.34 39.94,-56.92 9.59,-22.3 14.3,-47.53 14.3,-75.41 0,-50.2 -16.08,-89.27 -48.66,-117.4 -32.37,-28.12 -79.45,-42.16 -140.82,-42.16l-150.44 0zm647.45 800.28l0 -129.43c14.71,13.15 32.34,24.77 53.13,35.26 20.74,10.5 42.62,19.43 65.37,26.56 22.99,7.15 45.99,12.73 68.96,16.74 23.23,3.8 44.65,5.8 64.06,5.8 67.61,0 118.07,-12.5 151.52,-37.71 33.25,-25.01 50,-60.92 50,-108.03 0,-25.42 -5.58,-47.29 -16.75,-66.04 -11.15,-18.75 -26.54,-35.94 -45.95,-51.33 -19.66,-15.63 -42.87,-30.36 -69.66,-44.4 -27,-14.3 -55.79,-29.25 -86.78,-44.88 -32.58,-16.53 -63.16,-33.48 -91.53,-50.45 -28.32,-16.96 -52.88,-35.71 -73.87,-56.24 -20.95,-20.54 -37.25,-43.75 -49.31,-69.62 -12.06,-25.88 -18.08,-56.24 -18.08,-91.07 0,-42.84 9.37,-79.87 28.12,-111.57 18.73,-31.71 43.53,-57.57 73.88,-78.11 30.56,-20.54 65.38,-35.71 104.45,-45.75 38.83,-10.04 78.76,-14.95 119.16,-14.95 92.4,0 159.81,10.92 202.19,33.23l0 123.66c-55.33,-38.4 -126.53,-57.57 -213.11,-57.57 -24.12,0 -47.98,2.45 -72.1,7.58 -23.88,4.91 -45.29,13.17 -64.04,24.32 -18.76,11.39 -33.93,26.12 -45.75,43.96 -11.82,17.87 -17.63,39.49 -17.63,65.41 0,23.87 4.46,44.62 13.39,62.03 8.91,17.41 22.08,33.25 39.49,47.75 17.41,14.29 38.83,28.37 63.83,41.74 24.99,13.63 54.02,28.34 86.6,44.62 33.7,16.53 65.37,33.96 95.51,52.24 30.14,18.3 56.48,38.62 79.01,60.7 22.76,22.34 40.62,46.87 54.01,73.87 13.37,27.21 19.86,58.04 19.86,92.83 0,46.21 -8.91,85.49 -26.99,117.4 -18.08,32.12 -42.66,58.24 -73.21,78.12 -30.82,20.08 -66.29,34.58 -106.23,43.53 -40.16,8.91 -82.58,13.37 -126.98,13.37 -14.75,0 -33.05,-1.11 -54.91,-3.58 -21.67,-2.46 -43.97,-5.79 -66.74,-10.5 -22.54,-4.46 -43.97,-10.24 -64.28,-16.95 -20.3,-6.68 -36.58,-14.26 -48.64,-22.54zm1364.51 -899.61l-309.09 590.97 0 346.58 -110.03 0 0 -343.9 -301.3 -593.65 124.74 0 210.01 423.58c2.46,5.38 10.3,24.55 22.79,57.58l2.01 0c4.45,-14.71 12.71,-33.92 24.75,-57.58l219.84 -423.58 116.28 0zm710.57 99.33l-270.71 0 0 838.22 -109.77 0 0 -838.22 -270.06 0 0 -99.33 650.54 0 0 99.33zm644.09 838.22l-496.77 0 0 -937.55 476.03 0 0 99.33 -366.24 0 0 312 338.78 0 0 98.63 -338.78 0 0 328.28 386.98 0 0 99.31zm737.58 -838.22l-270.71 0 0 838.22 -109.78 0 0 -838.22 -270.05 0 0 -99.33 650.54 0 0 99.33zm-7948.15 2538.06l-538.19 0 0 -1015.68 515.7 0 0 107.61 -396.74 0 0 338 366.99 0 0 106.84 -366.99 0 0 355.62 419.23 0 0 107.61zm837.91 0l-153.12 0 -362.21 -428.94c-13.62,-16.08 -21.86,-27.01 -24.77,-32.58l-2.67 0 0 461.52 -109.79 0 0 -937.55 109.79 0 0 440.53 2.67 0c6.02,-9.59 14.28,-20.09 24.77,-31.91l350.39 -408.62 136.8 0 -402.15 449.69 430.29 487.86zm443.02 15.63c-133.04,0 -239.48,-43.75 -319.39,-131.46 -79.9,-87.47 -120.07,-201.52 -120.07,-341.91 0,-150.86 40.84,-271.13 122.33,-360.87 81.45,-89.7 192.59,-134.57 332.74,-134.57 129.65,0 233.89,43.53 312.89,130.57 79.23,87.25 118.72,201.3 118.72,342.12 0,152.86 -40.61,273.84 -121.63,362.88 -81,88.82 -189.48,133.24 -325.59,133.24zm7.79 -869.49c-98.41,0 -178.53,35.47 -239.9,106.46 -61.39,71.19 -92.19,164.47 -92.19,279.84 0,115.61 29.92,208.47 89.95,278.96 59.82,70.32 138.15,105.57 234.35,105.57 102.86,0 183.9,-33.45 243.25,-100.65 59.37,-67.17 88.83,-161.12 88.83,-281.86 0,-123.85 -28.57,-219.38 -86.16,-286.99 -57.57,-67.63 -137.02,-101.33 -238.13,-101.33zm1379.66 853.86l-134.78 0 -482.51 -747.4c-12.26,-18.75 -22.3,-38.38 -30.12,-58.72l-3.8 0c3.34,20.08 5.12,62.96 5.12,128.78l0 677.34 -109.79 0 0 -937.55 142.37 0 469.58 735.58c19.63,30.35 32.36,51.33 37.94,62.7l2.68 0c-4.46,-27 -6.72,-72.96 -6.72,-137.9l0 -660.38 110.03 0 0 937.55zm623.55 15.63c-133.02,0 -239.46,-43.75 -319.37,-131.46 -79.9,-87.47 -120.06,-201.52 -120.06,-341.91 0,-150.86 40.83,-271.13 122.3,-360.87 81.45,-89.7 192.61,-134.57 332.76,-134.57 129.65,0 233.88,43.53 312.87,130.57 79.24,87.25 118.75,201.3 118.75,342.12 0,152.86 -40.62,273.84 -121.66,362.88 -80.99,88.82 -189.47,133.24 -325.59,133.24zm7.81 -869.49c-98.43,0 -178.53,35.47 -239.9,106.46 -61.41,71.19 -92.19,164.47 -92.19,279.84 0,115.61 29.91,208.47 89.95,278.96 59.81,70.32 138.15,105.57 234.33,105.57 102.87,0 183.9,-33.45 243.27,-100.65 59.37,-67.17 88.82,-161.12 88.82,-281.86 0,-123.85 -28.58,-219.38 -86.15,-286.99 -57.58,-67.63 -137.04,-101.33 -238.13,-101.33zm1474.98 853.86l-109.16 0 0 -628.92c0,-24.99 0.68,-53.09 2.26,-84.79 1.54,-31.45 3.78,-65.4 6.91,-101.56l-2.71 0c-2.42,10.5 -6.46,22.12 -11.59,34.82 -5.36,12.95 -10.95,25.46 -16.73,37.29 -6.04,12.04 -11.39,22.75 -16.3,32.34 -5.13,9.62 -8.71,16.99 -10.91,21.66l-240.59 444.57 -53.59 0 -240.56 -443.24c-2.23,-5.13 -6.03,-12.72 -11.16,-22.54 -5.13,-9.82 -10.7,-20.75 -16.28,-32.79 -5.84,-11.83 -11.17,-24.12 -16.08,-36.84 -5.13,-12.69 -8.93,-24.32 -11.39,-35.27l-2.65 0c1.74,18.74 3.11,43.99 4,75.89 0.65,31.69 1.11,68.96 1.11,111.59l0 627.79 -105.78 0 0 -937.55 137.24 0 243.27 445.89c10.49,19.63 19.41,37.96 26.77,54.92 7.39,16.95 12.95,31.92 16.3,44.41l4 0c4.26,-12.95 10.04,-28.37 17.21,-45.74 7.37,-17.43 16.5,-36.16 27.87,-56.24l242.59 -443.24 135.95 0 0 937.55zm355.71 0l-109.79 0 0 -937.55 109.79 0 0 937.55zm884.68 -39.29c-69.2,36.62 -155.56,54.92 -258.89,54.92 -133.48,0 -240.14,-42.88 -320.5,-128.78 -80.11,-85.91 -120.27,-198.4 -120.27,-337.87 0,-149.99 45.31,-271.19 135.48,-363.56 90.14,-92.4 204.65,-138.6 343.25,-138.6 88.82,0 162.45,12.72 220.93,38.38l0 117.18c-67.19,-37.49 -141.28,-56.24 -222.3,-56.24 -107.57,0 -194.82,35.92 -261.78,107.79 -66.93,71.86 -100.44,168.05 -100.44,288.33 0,114.27 31.25,205.31 93.75,272.97 62.7,67.83 144.6,101.74 246.17,101.74 94.17,0 175.86,-20.96 244.6,-62.7l0 106.44zm802.99 -872.14l-549.23 812.12 536.06 0 0 99.31 -700.09 0 0 -30.79 544.53 -807.45 -500.79 0 0 -99.31 669.52 0 0 26.12zm907.63 911.43l-134.78 0 -482.51 -747.4c-12.26,-18.75 -22.3,-38.38 -30.12,-58.72l-3.81 0c3.35,20.08 5.13,62.96 5.13,128.78l0 677.34 -109.77 0 0 -937.55 142.35 0 469.58 735.58c19.62,30.35 32.36,51.33 37.94,62.7l2.67 0c-4.45,-27 -6.71,-72.96 -6.71,-137.9l0 -660.38 110.03 0 0 937.55zm854.99 -937.55l-309.09 590.97 0 346.58 -110.03 0 0 -343.92 -301.3 -593.63 124.74 0 210.01 423.57c2.46,5.37 10.3,24.54 22.8,57.57l2 0c4.45,-14.69 12.71,-33.9 24.75,-57.57l219.84 -423.57 116.28 0zm-8017.73 1699.83l-264.71 937.54 -128.74 0 -193.05 -685.12c-8.25,-29.25 -13.16,-61.15 -14.96,-95.53l-2.66 0c-2.46,32.12 -8.29,63.59 -16.97,94.16l-194.17 686.49 -127.44 0 -274.73 -937.54 120.99 0 199.51 719.07c8.25,30.12 13.38,61.59 15.62,94.16l3.35 0c2,-22.99 8.91,-54.46 20.28,-94.16l207.1 -719.07 105.36 0 198.86 724.41c6.91,24.78 12.04,54.03 15.63,87.5l2.65 0c1.58,-22.56 7.59,-52.68 17.63,-90.17l191.48 -721.74 118.97 0zm635.36 553.62l0 383.92 -118.94 0 0 -1015.66 278.99 0c108.57,0 192.7,26.36 252.67,79.31 59.7,52.95 89.42,127.39 89.42,223.87 0,96.22 -33.09,175.04 -99.35,236.46 -66.49,61.39 -156.2,92.1 -268.82,92.1l-133.97 0zm0 -524.13l0 416.55 124.76 0c81.95,0 144.83,-18.86 187.84,-56.33 43.29,-37.49 65.05,-90.67 65.05,-159.06 0,-134.19 -79.54,-201.16 -238.14,-201.16l-139.51 0zm1060.99 923.67c-133.02,0 -239.46,-43.74 -319.37,-131.43 -79.91,-87.49 -120.07,-201.52 -120.07,-341.91 0,-150.86 40.84,-271.15 122.31,-360.88 81.45,-89.71 192.6,-134.56 332.75,-134.56 129.66,0 233.88,43.53 312.88,130.56 79.23,87.24 118.74,201.3 118.74,342.13 0,152.86 -40.62,273.84 -121.65,362.88 -81,88.81 -189.48,133.21 -325.59,133.21zm7.8 -869.47c-98.42,0 -178.53,35.47 -239.9,106.45 -61.41,71.19 -92.18,164.48 -92.18,279.84 0,115.61 29.9,208.47 89.93,278.97 59.82,70.32 138.15,105.57 234.35,105.57 102.86,0 183.89,-33.46 243.26,-100.66 59.37,-67.15 88.82,-161.1 88.82,-281.84 0,-123.87 -28.57,-219.38 -86.14,-287.01 -57.59,-67.61 -137.04,-101.32 -238.14,-101.32zm1203.6 -57.58l-549.23 812.12 536.06 0 0 99.31 -700.1 0 0 -30.78 544.54 -807.44 -500.79 0 0 -99.32 669.52 0 0 26.11zm907.63 911.43l-134.77 0 -482.52 -747.4c-12.26,-18.76 -22.3,-38.38 -30.13,-58.7l-3.8 0c3.35,20.08 5.13,62.95 5.13,128.78l0 677.32 -109.77 0 0 -937.54 142.37 0 469.56 735.57c19.62,30.37 32.36,51.33 37.94,62.71l2.67 0c-4.45,-27.01 -6.71,-72.96 -6.71,-137.91l0 -660.37 110.03 0 0 937.54zm971.48 0l-121.62 0 -99.31 -262.87 -397.71 0 -93.53 262.87 -122.27 0 359.75 -937.54 113.81 0 360.88 937.54zm-257.09 -361.53l-147.08 -399.5c-4.69,-13.17 -9.6,-34.12 -14.28,-62.7l-2.67 0c-4.46,26.54 -9.37,47.33 -14.96,62.7l-145.98 399.5 324.97 0zm1150.9 361.53l-134.79 0 -482.51 -747.4c-12.26,-18.76 -22.3,-38.38 -30.14,-58.7l-3.78 0c3.33,20.08 5.13,62.95 5.13,128.78l0 677.32 -109.79 0 0 -937.54 142.37 0 469.56 735.57c19.62,30.37 32.37,51.33 37.96,62.71l2.67 0c-4.47,-27.01 -6.71,-72.96 -6.71,-137.91l0 -660.37 110.03 0 0 937.54zm355.49 0l-109.77 0 0 -937.54 109.77 0 0 937.54zm932.45 -379.16c0,263.11 -118.75,394.78 -356.43,394.78 -227.4,0 -341.21,-126.52 -341.21,-379.83l0 -573.33 109.79 0 0 566.19c0,192.13 81.23,288.33 243.25,288.33 156.44,0 234.8,-92.83 234.8,-278.51l0 -576.01 109.8 0 0 558.38z"/>
  </g>
 </g>
</svg>
